<?xml version="1.0" encoding="UTF-8" standalone="no"?>
<!DOCTYPE svg PUBLIC "-//W3C//DTD SVG 1.1//EN"
 "http://www.w3.org/Graphics/SVG/1.1/DTD/svg11.dtd">
<!-- Generated by graphviz version 2.47.0 (20210316.0004)
 -->
<!-- Title: dependencies Pages: 1 -->
<svg width="504pt" height="284pt"
 viewBox="0.00 0.00 504.00 284.00" xmlns="http://www.w3.org/2000/svg" xmlns:xlink="http://www.w3.org/1999/xlink">
<g id="graph0" class="graph" transform="scale(1 1) rotate(0) translate(4 280)">
<title>dependencies</title>
<polygon fill="white" stroke="transparent" points="-4,4 -4,-280 500,-280 500,4 -4,4"/>
<text text-anchor="start" x="227.01" y="-42.4" font-family="Times-12" font-weight="bold" font-size="14.00">Legend</text>
<polygon fill="#ffffb3" stroke="transparent" points="14,-10 14,-30 34,-30 34,-10 14,-10"/>
<text text-anchor="start" x="37.63" y="-15.4" font-family="Times-12" font-size="14.00"> &#160;Declarations</text>
<polygon fill="#8dd3c7" stroke="transparent" points="127,-10 127,-30 147,-30 147,-10 127,-10"/>
<text text-anchor="start" x="150.73" y="-15.4" font-family="Times-12" font-size="14.00"> &#160;Module</text>
<polygon fill="#80b1d3" stroke="transparent" points="213,-10 213,-30 233,-30 233,-10 213,-10"/>
<text text-anchor="start" x="236.78" y="-15.4" font-family="Times-12" font-size="14.00"> &#160;Bootstrap</text>
<polygon fill="#fdb462" stroke="transparent" points="310,-10 310,-30 330,-30 330,-10 310,-10"/>
<text text-anchor="start" x="333.67" y="-15.4" font-family="Times-12" font-size="14.00"> &#160;Providers</text>
<polygon fill="#fb8072" stroke="transparent" points="406,-10 406,-30 426,-30 426,-10 406,-10"/>
<text text-anchor="start" x="429.73" y="-15.4" font-family="Times-12" font-size="14.00"> &#160;Exports</text>
<g id="clust1" class="cluster">
<title>cluster_RolesModule</title>
<polygon fill="none" stroke="black" stroke-dasharray="1,5" points="24,-70 24,-268 472,-268 472,-70 24,-70"/>
</g>
<g id="clust4" class="cluster">
<title>cluster_RolesModule_exports</title>
<polygon fill="none" stroke="black" points="189,-208 189,-260 299,-260 299,-208 189,-208"/>
</g>
<g id="clust6" class="cluster">
<title>cluster_RolesModule_providers</title>
<polygon fill="none" stroke="black" points="32,-78 32,-130 464,-130 464,-78 32,-78"/>
</g>
<!-- RolesService  -->
<g id="node1" class="node">
<title>RolesService </title>
<polygon fill="#fb8072" stroke="black" points="290.86,-252 197.14,-252 197.14,-216 290.86,-216 290.86,-252"/>
<text text-anchor="middle" x="244" y="-229.8" font-family="Times,serif" font-size="14.00">RolesService </text>
</g>
<!-- RolesModule -->
<g id="node2" class="node">
<title>RolesModule</title>
<polygon fill="#8dd3c7" stroke="black" points="289.94,-187 286.94,-191 265.94,-191 262.94,-187 198.06,-187 198.06,-151 289.94,-151 289.94,-187"/>
<text text-anchor="middle" x="244" y="-164.8" font-family="Times,serif" font-size="14.00">RolesModule</text>
</g>
<!-- RolesModule&#45;&gt;RolesService  -->
<g id="edge1" class="edge">
<title>RolesModule&#45;&gt;RolesService </title>
<path fill="none" stroke="black" stroke-dasharray="5,2" d="M244,-187.11C244,-187.11 244,-205.99 244,-205.99"/>
<polygon fill="black" stroke="black" points="240.5,-205.99 244,-215.99 247.5,-205.99 240.5,-205.99"/>
</g>
<!-- LabelsService -->
<g id="node3" class="node">
<title>LabelsService</title>
<ellipse fill="#fdb462" stroke="black" cx="390" cy="-104" rx="65.97" ry="18"/>
<text text-anchor="middle" x="390" y="-99.8" font-family="Times,serif" font-size="14.00">LabelsService</text>
</g>
<!-- LabelsService&#45;&gt;RolesModule -->
<g id="edge2" class="edge">
<title>LabelsService&#45;&gt;RolesModule</title>
<path fill="none" stroke="black" d="M390,-122.11C390,-141.34 390,-169 390,-169 390,-169 299.79,-169 299.79,-169"/>
<polygon fill="black" stroke="black" points="299.79,-165.5 289.79,-169 299.79,-172.5 299.79,-165.5"/>
</g>
<!-- RolesService -->
<g id="node4" class="node">
<title>RolesService</title>
<ellipse fill="#fdb462" stroke="black" cx="244" cy="-104" rx="61.97" ry="18"/>
<text text-anchor="middle" x="244" y="-99.8" font-family="Times,serif" font-size="14.00">RolesService</text>
</g>
<!-- RolesService&#45;&gt;RolesModule -->
<g id="edge3" class="edge">
<title>RolesService&#45;&gt;RolesModule</title>
<path fill="none" stroke="black" d="M244,-122.11C244,-122.11 244,-140.99 244,-140.99"/>
<polygon fill="black" stroke="black" points="240.5,-140.99 244,-150.99 247.5,-140.99 240.5,-140.99"/>
</g>
<!-- UsersService -->
<g id="node5" class="node">
<title>UsersService</title>
<ellipse fill="#fdb462" stroke="black" cx="102" cy="-104" rx="61.95" ry="18"/>
<text text-anchor="middle" x="102" y="-99.8" font-family="Times,serif" font-size="14.00">UsersService</text>
</g>
<!-- UsersService&#45;&gt;RolesModule -->
<g id="edge4" class="edge">
<title>UsersService&#45;&gt;RolesModule</title>
<path fill="none" stroke="black" d="M102,-122.11C102,-141.34 102,-169 102,-169 102,-169 187.9,-169 187.9,-169"/>
<polygon fill="black" stroke="black" points="187.9,-172.5 197.9,-169 187.9,-165.5 187.9,-172.5"/>
</g>
</g>
</svg>
