<?xml version="1.0" encoding="UTF-8" standalone="no"?>
<!DOCTYPE svg PUBLIC "-//W3C//DTD SVG 1.1//EN"
 "http://www.w3.org/Graphics/SVG/1.1/DTD/svg11.dtd">
<!-- Generated by graphviz version 2.47.0 (20210316.0004)
 -->
<!-- Title: dependencies Pages: 1 -->
<svg width="1084pt" height="211pt"
 viewBox="0.00 0.00 1084.00 211.00" xmlns="http://www.w3.org/2000/svg" xmlns:xlink="http://www.w3.org/1999/xlink">
<g id="graph0" class="graph" transform="scale(1 1) rotate(0) translate(4 207)">
<title>dependencies</title>
<polygon fill="white" stroke="transparent" points="-4,4 -4,-207 1080,-207 1080,4 -4,4"/>
<text text-anchor="start" x="517.01" y="-42.4" font-family="Times-12" font-weight="bold" font-size="14.00">Legend</text>
<polygon fill="#ffffb3" stroke="transparent" points="304,-10 304,-30 324,-30 324,-10 304,-10"/>
<text text-anchor="start" x="327.63" y="-15.4" font-family="Times-12" font-size="14.00"> &#160;Declarations</text>
<polygon fill="#8dd3c7" stroke="transparent" points="417,-10 417,-30 437,-30 437,-10 417,-10"/>
<text text-anchor="start" x="440.73" y="-15.4" font-family="Times-12" font-size="14.00"> &#160;Module</text>
<polygon fill="#80b1d3" stroke="transparent" points="503,-10 503,-30 523,-30 523,-10 503,-10"/>
<text text-anchor="start" x="526.78" y="-15.4" font-family="Times-12" font-size="14.00"> &#160;Bootstrap</text>
<polygon fill="#fdb462" stroke="transparent" points="600,-10 600,-30 620,-30 620,-10 600,-10"/>
<text text-anchor="start" x="623.67" y="-15.4" font-family="Times-12" font-size="14.00"> &#160;Providers</text>
<polygon fill="#fb8072" stroke="transparent" points="696,-10 696,-30 716,-30 716,-10 696,-10"/>
<text text-anchor="start" x="719.73" y="-15.4" font-family="Times-12" font-size="14.00"> &#160;Exports</text>
<g id="clust1" class="cluster">
<title>cluster_GuardsModule</title>
<polygon fill="none" stroke="black" stroke-dasharray="1,5" points="8,-70 8,-195 1068,-195 1068,-70 8,-70"/>
</g>
<g id="clust3" class="cluster">
<title>cluster_GuardsModule_imports</title>
<polygon fill="none" stroke="black" points="952,-78 952,-130 1060,-130 1060,-78 952,-78"/>
</g>
<g id="clust6" class="cluster">
<title>cluster_GuardsModule_providers</title>
<polygon fill="none" stroke="black" points="16,-78 16,-130 944,-130 944,-78 16,-78"/>
</g>
<!-- RolesModule -->
<g id="node1" class="node">
<title>RolesModule</title>
<polygon fill="#8dd3c7" stroke="black" points="1051.94,-122 1048.94,-126 1027.94,-126 1024.94,-122 960.06,-122 960.06,-86 1051.94,-86 1051.94,-122"/>
<text text-anchor="middle" x="1006" y="-99.8" font-family="Times,serif" font-size="14.00">RolesModule</text>
</g>
<!-- GuardsModule -->
<g id="node2" class="node">
<title>GuardsModule</title>
<polygon fill="#8dd3c7" stroke="black" points="604.98,-187 601.98,-191 580.98,-191 577.98,-187 505.02,-187 505.02,-151 604.98,-151 604.98,-187"/>
<text text-anchor="middle" x="555" y="-164.8" font-family="Times,serif" font-size="14.00">GuardsModule</text>
</g>
<!-- RolesModule&#45;&gt;GuardsModule -->
<g id="edge1" class="edge">
<title>RolesModule&#45;&gt;GuardsModule</title>
<path fill="none" stroke="black" d="M1006,-122.29C1006,-144.21 1006,-178 1006,-178 1006,-178 614.99,-178 614.99,-178"/>
<polygon fill="black" stroke="black" points="614.99,-174.5 604.99,-178 614.99,-181.5 614.99,-174.5"/>
</g>
<!-- InstanceGuard -->
<g id="node3" class="node">
<title>InstanceGuard</title>
<ellipse fill="#fdb462" stroke="black" cx="869" cy="-104" rx="67.18" ry="18"/>
<text text-anchor="middle" x="869" y="-99.8" font-family="Times,serif" font-size="14.00">InstanceGuard</text>
</g>
<!-- InstanceGuard&#45;&gt;GuardsModule -->
<g id="edge2" class="edge">
<title>InstanceGuard&#45;&gt;GuardsModule</title>
<path fill="none" stroke="black" d="M869,-122.11C869,-141.34 869,-169 869,-169 869,-169 615.1,-169 615.1,-169"/>
<polygon fill="black" stroke="black" points="615.1,-165.5 605.1,-169 615.1,-172.5 615.1,-165.5"/>
</g>
<!-- JwtAuthGuard -->
<g id="node4" class="node">
<title>JwtAuthGuard</title>
<ellipse fill="#fdb462" stroke="black" cx="716" cy="-104" rx="67.78" ry="18"/>
<text text-anchor="middle" x="716" y="-99.8" font-family="Times,serif" font-size="14.00">JwtAuthGuard</text>
</g>
<!-- JwtAuthGuard&#45;&gt;GuardsModule -->
<g id="edge3" class="edge">
<title>JwtAuthGuard&#45;&gt;GuardsModule</title>
<path fill="none" stroke="black" d="M716,-122.03C716,-138.4 716,-160 716,-160 716,-160 615.06,-160 615.06,-160"/>
<polygon fill="black" stroke="black" points="615.06,-156.5 605.06,-160 615.06,-163.5 615.06,-156.5"/>
</g>
<!-- JwtOAuthGuard -->
<g id="node5" class="node">
<title>JwtOAuthGuard</title>
<ellipse fill="#fdb462" stroke="black" cx="555" cy="-104" rx="74.72" ry="18"/>
<text text-anchor="middle" x="555" y="-99.8" font-family="Times,serif" font-size="14.00">JwtOAuthGuard</text>
</g>
<!-- JwtOAuthGuard&#45;&gt;GuardsModule -->
<g id="edge4" class="edge">
<title>JwtOAuthGuard&#45;&gt;GuardsModule</title>
<path fill="none" stroke="black" d="M555,-122.11C555,-122.11 555,-140.99 555,-140.99"/>
<polygon fill="black" stroke="black" points="551.5,-140.99 555,-150.99 558.5,-140.99 551.5,-140.99"/>
</g>
<!-- LocalAuthGuard -->
<g id="node6" class="node">
<title>LocalAuthGuard</title>
<ellipse fill="#fdb462" stroke="black" cx="386" cy="-104" rx="76.43" ry="18"/>
<text text-anchor="middle" x="386" y="-99.8" font-family="Times,serif" font-size="14.00">LocalAuthGuard</text>
</g>
<!-- LocalAuthGuard&#45;&gt;GuardsModule -->
<g id="edge5" class="edge">
<title>LocalAuthGuard&#45;&gt;GuardsModule</title>
<path fill="none" stroke="black" d="M386,-122.03C386,-138.4 386,-160 386,-160 386,-160 494.75,-160 494.75,-160"/>
<polygon fill="black" stroke="black" points="494.75,-163.5 504.75,-160 494.75,-156.5 494.75,-163.5"/>
</g>
<!-- OrthancClient -->
<g id="node7" class="node">
<title>OrthancClient</title>
<ellipse fill="#fdb462" stroke="black" cx="226" cy="-104" rx="65.99" ry="18"/>
<text text-anchor="middle" x="226" y="-99.8" font-family="Times,serif" font-size="14.00">OrthancClient</text>
</g>
<!-- OrthancClient&#45;&gt;GuardsModule -->
<g id="edge6" class="edge">
<title>OrthancClient&#45;&gt;GuardsModule</title>
<path fill="none" stroke="black" d="M226,-122.11C226,-141.34 226,-169 226,-169 226,-169 494.67,-169 494.67,-169"/>
<polygon fill="black" stroke="black" points="494.67,-172.5 504.67,-169 494.67,-165.5 494.67,-172.5"/>
</g>
<!-- SeriesGuard -->
<g id="node8" class="node">
<title>SeriesGuard</title>
<ellipse fill="#fdb462" stroke="black" cx="83" cy="-104" rx="58.53" ry="18"/>
<text text-anchor="middle" x="83" y="-99.8" font-family="Times,serif" font-size="14.00">SeriesGuard</text>
</g>
<!-- SeriesGuard&#45;&gt;GuardsModule -->
<g id="edge7" class="edge">
<title>SeriesGuard&#45;&gt;GuardsModule</title>
<path fill="none" stroke="black" d="M83,-122.29C83,-144.21 83,-178 83,-178 83,-178 494.93,-178 494.93,-178"/>
<polygon fill="black" stroke="black" points="494.93,-181.5 504.93,-178 494.93,-174.5 494.93,-181.5"/>
</g>
</g>
</svg>
