<?xml version="1.0" encoding="UTF-8" standalone="no"?>
<!DOCTYPE svg PUBLIC "-//W3C//DTD SVG 1.1//EN"
 "http://www.w3.org/Graphics/SVG/1.1/DTD/svg11.dtd">
<!-- Generated by graphviz version 2.47.0 (20210316.0004)
 -->
<!-- Title: dependencies Pages: 1 -->
<svg width="1084pt" height="211pt"
 viewBox="0.00 0.00 1084.00 211.00" xmlns="http://www.w3.org/2000/svg" xmlns:xlink="http://www.w3.org/1999/xlink">
<g id="graph0" class="graph" transform="scale(1 1) rotate(0) translate(4 207)">
<title>dependencies</title>
<polygon fill="white" stroke="transparent" points="-4,4 -4,-207 1080,-207 1080,4 -4,4"/>
<text text-anchor="start" x="517.01" y="-42.4" font-family="Times-12" font-weight="bold" font-size="14.00">Legend</text>
<polygon fill="#ffffb3" stroke="transparent" points="304,-10 304,-30 324,-30 324,-10 304,-10"/>
<text text-anchor="start" x="327.63" y="-15.4" font-family="Times-12" font-size="14.00"> &#160;Declarations</text>
<polygon fill="#8dd3c7" stroke="transparent" points="417,-10 417,-30 437,-30 437,-10 417,-10"/>
<text text-anchor="start" x="440.73" y="-15.4" font-family="Times-12" font-size="14.00"> &#160;Module</text>
<polygon fill="#80b1d3" stroke="transparent" points="503,-10 503,-30 523,-30 523,-10 503,-10"/>
<text text-anchor="start" x="526.78" y="-15.4" font-family="Times-12" font-size="14.00"> &#160;Bootstrap</text>
<polygon fill="#fdb462" stroke="transparent" points="600,-10 600,-30 620,-30 620,-10 600,-10"/>
<text text-anchor="start" x="623.67" y="-15.4" font-family="Times-12" font-size="14.00"> &#160;Providers</text>
<polygon fill="#fb8072" stroke="transparent" points="696,-10 696,-30 716,-30 716,-10 696,-10"/>
<text text-anchor="start" x="719.73" y="-15.4" font-family="Times-12" font-size="14.00"> &#160;Exports</text>
<g id="clust1" class="cluster">
<title>cluster_GuardsModule</title>
<polygon fill="none" stroke="black" stroke-dasharray="1,5" points="8,-70 8,-195 1068,-195 1068,-70 8,-70"/>
</g>
<g id="clust6" class="cluster">
<title>cluster_GuardsModule_providers</title>
<polygon fill="none" stroke="black" points="132,-78 132,-130 1060,-130 1060,-78 132,-78"/>
</g>
<g id="clust3" class="cluster">
<title>cluster_GuardsModule_imports</title>
<polygon fill="none" stroke="black" points="16,-78 16,-130 124,-130 124,-78 16,-78"/>
</g>
<!-- RolesModule -->
<g id="node1" class="node">
<title>RolesModule</title>
<polygon fill="#8dd3c7" stroke="black" points="115.94,-122 112.94,-126 91.94,-126 88.94,-122 24.06,-122 24.06,-86 115.94,-86 115.94,-122"/>
<text text-anchor="middle" x="70" y="-99.8" font-family="Times,serif" font-size="14.00">RolesModule</text>
</g>
<!-- GuardsModule -->
<g id="node2" class="node">
<title>GuardsModule</title>
<polygon fill="#8dd3c7" stroke="black" points="551.98,-187 548.98,-191 527.98,-191 524.98,-187 452.02,-187 452.02,-151 551.98,-151 551.98,-187"/>
<text text-anchor="middle" x="502" y="-164.8" font-family="Times,serif" font-size="14.00">GuardsModule</text>
</g>
<!-- RolesModule&#45;&gt;GuardsModule -->
<g id="edge1" class="edge">
<title>RolesModule&#45;&gt;GuardsModule</title>
<path fill="none" stroke="black" d="M70,-122.29C70,-144.21 70,-178 70,-178 70,-178 442.02,-178 442.02,-178"/>
<polygon fill="black" stroke="black" points="442.02,-181.5 452.02,-178 442.02,-174.5 442.02,-181.5"/>
</g>
<!-- InstanceGuard -->
<g id="node3" class="node">
<title>InstanceGuard</title>
<ellipse fill="#fdb462" stroke="black" cx="985" cy="-104" rx="67.18" ry="18"/>
<text text-anchor="middle" x="985" y="-99.8" font-family="Times,serif" font-size="14.00">InstanceGuard</text>
</g>
<!-- InstanceGuard&#45;&gt;GuardsModule -->
<g id="edge2" class="edge">
<title>InstanceGuard&#45;&gt;GuardsModule</title>
<path fill="none" stroke="black" d="M985,-122.29C985,-144.21 985,-178 985,-178 985,-178 562.32,-178 562.32,-178"/>
<polygon fill="black" stroke="black" points="562.32,-174.5 552.32,-178 562.32,-181.5 562.32,-174.5"/>
</g>
<!-- JwtAuthGuard -->
<g id="node4" class="node">
<title>JwtAuthGuard</title>
<ellipse fill="#fdb462" stroke="black" cx="832" cy="-104" rx="67.78" ry="18"/>
<text text-anchor="middle" x="832" y="-99.8" font-family="Times,serif" font-size="14.00">JwtAuthGuard</text>
</g>
<!-- JwtAuthGuard&#45;&gt;GuardsModule -->
<g id="edge3" class="edge">
<title>JwtAuthGuard&#45;&gt;GuardsModule</title>
<path fill="none" stroke="black" d="M832,-122.11C832,-141.34 832,-169 832,-169 832,-169 562.12,-169 562.12,-169"/>
<polygon fill="black" stroke="black" points="562.12,-165.5 552.12,-169 562.12,-172.5 562.12,-165.5"/>
</g>
<!-- JwtOAuthGuard -->
<g id="node5" class="node">
<title>JwtOAuthGuard</title>
<ellipse fill="#fdb462" stroke="black" cx="671" cy="-104" rx="74.72" ry="18"/>
<text text-anchor="middle" x="671" y="-99.8" font-family="Times,serif" font-size="14.00">JwtOAuthGuard</text>
</g>
<!-- JwtOAuthGuard&#45;&gt;GuardsModule -->
<g id="edge4" class="edge">
<title>JwtOAuthGuard&#45;&gt;GuardsModule</title>
<path fill="none" stroke="black" d="M671,-122.03C671,-138.4 671,-160 671,-160 671,-160 562.25,-160 562.25,-160"/>
<polygon fill="black" stroke="black" points="562.25,-156.5 552.25,-160 562.25,-163.5 562.25,-156.5"/>
</g>
<!-- LocalAuthGuard -->
<g id="node6" class="node">
<title>LocalAuthGuard</title>
<ellipse fill="#fdb462" stroke="black" cx="502" cy="-104" rx="76.43" ry="18"/>
<text text-anchor="middle" x="502" y="-99.8" font-family="Times,serif" font-size="14.00">LocalAuthGuard</text>
</g>
<!-- LocalAuthGuard&#45;&gt;GuardsModule -->
<g id="edge5" class="edge">
<title>LocalAuthGuard&#45;&gt;GuardsModule</title>
<path fill="none" stroke="black" d="M502,-122.11C502,-122.11 502,-140.99 502,-140.99"/>
<polygon fill="black" stroke="black" points="498.5,-140.99 502,-150.99 505.5,-140.99 498.5,-140.99"/>
</g>
<!-- OrthancClient -->
<g id="node7" class="node">
<title>OrthancClient</title>
<ellipse fill="#fdb462" stroke="black" cx="342" cy="-104" rx="65.99" ry="18"/>
<text text-anchor="middle" x="342" y="-99.8" font-family="Times,serif" font-size="14.00">OrthancClient</text>
</g>
<!-- OrthancClient&#45;&gt;GuardsModule -->
<g id="edge6" class="edge">
<title>OrthancClient&#45;&gt;GuardsModule</title>
<path fill="none" stroke="black" d="M342,-122.03C342,-138.4 342,-160 342,-160 342,-160 441.81,-160 441.81,-160"/>
<polygon fill="black" stroke="black" points="441.81,-163.5 451.81,-160 441.81,-156.5 441.81,-163.5"/>
</g>
<!-- SeriesGuard -->
<g id="node8" class="node">
<title>SeriesGuard</title>
<ellipse fill="#fdb462" stroke="black" cx="199" cy="-104" rx="58.53" ry="18"/>
<text text-anchor="middle" x="199" y="-99.8" font-family="Times,serif" font-size="14.00">SeriesGuard</text>
</g>
<!-- SeriesGuard&#45;&gt;GuardsModule -->
<g id="edge7" class="edge">
<title>SeriesGuard&#45;&gt;GuardsModule</title>
<path fill="none" stroke="black" d="M199,-122.11C199,-141.34 199,-169 199,-169 199,-169 441.97,-169 441.97,-169"/>
<polygon fill="black" stroke="black" points="441.97,-172.5 451.97,-169 441.97,-165.5 441.97,-172.5"/>
</g>
</g>
</svg>
