<?xml version="1.0" encoding="UTF-8" standalone="no"?>
<!DOCTYPE svg PUBLIC "-//W3C//DTD SVG 1.1//EN"
 "http://www.w3.org/Graphics/SVG/1.1/DTD/svg11.dtd">
<!-- Generated by graphviz version 2.47.0 (20210316.0004)
 -->
<!-- Title: dependencies Pages: 1 -->
<svg width="816pt" height="211pt"
 viewBox="0.00 0.00 816.00 211.00" xmlns="http://www.w3.org/2000/svg" xmlns:xlink="http://www.w3.org/1999/xlink">
<g id="graph0" class="graph" transform="scale(1 1) rotate(0) translate(4 207)">
<title>dependencies</title>
<polygon fill="white" stroke="transparent" points="-4,4 -4,-207 812,-207 812,4 -4,4"/>
<text text-anchor="start" x="383.01" y="-42.4" font-family="Times-12" font-weight="bold" font-size="14.00">Legend</text>
<polygon fill="#ffffb3" stroke="transparent" points="170,-10 170,-30 190,-30 190,-10 170,-10"/>
<text text-anchor="start" x="193.63" y="-15.4" font-family="Times-12" font-size="14.00"> &#160;Declarations</text>
<polygon fill="#8dd3c7" stroke="transparent" points="283,-10 283,-30 303,-30 303,-10 283,-10"/>
<text text-anchor="start" x="306.73" y="-15.4" font-family="Times-12" font-size="14.00"> &#160;Module</text>
<polygon fill="#80b1d3" stroke="transparent" points="369,-10 369,-30 389,-30 389,-10 369,-10"/>
<text text-anchor="start" x="392.78" y="-15.4" font-family="Times-12" font-size="14.00"> &#160;Bootstrap</text>
<polygon fill="#fdb462" stroke="transparent" points="466,-10 466,-30 486,-30 486,-10 466,-10"/>
<text text-anchor="start" x="489.67" y="-15.4" font-family="Times-12" font-size="14.00"> &#160;Providers</text>
<polygon fill="#fb8072" stroke="transparent" points="562,-10 562,-30 582,-30 582,-10 562,-10"/>
<text text-anchor="start" x="585.73" y="-15.4" font-family="Times-12" font-size="14.00"> &#160;Exports</text>
<g id="clust1" class="cluster">
<title>cluster_AutoroutingsModule</title>
<polygon fill="none" stroke="black" stroke-dasharray="1,5" points="8,-70 8,-195 800,-195 800,-70 8,-70"/>
</g>
<g id="clust6" class="cluster">
<title>cluster_AutoroutingsModule_providers</title>
<polygon fill="none" stroke="black" points="16,-78 16,-130 792,-130 792,-78 16,-78"/>
</g>
<!-- AutoroutingHandler -->
<g id="node1" class="node">
<title>AutoroutingHandler</title>
<ellipse fill="#fdb462" stroke="black" cx="695" cy="-104" rx="89.19" ry="18"/>
<text text-anchor="middle" x="695" y="-99.8" font-family="Times,serif" font-size="14.00">AutoroutingHandler</text>
</g>
<!-- AutoroutingsModule -->
<g id="node5" class="node">
<title>AutoroutingsModule</title>
<polygon fill="#8dd3c7" stroke="black" points="475.93,-187 472.93,-191 451.93,-191 448.93,-187 342.07,-187 342.07,-151 475.93,-151 475.93,-187"/>
<text text-anchor="middle" x="409" y="-164.8" font-family="Times,serif" font-size="14.00">AutoroutingsModule</text>
</g>
<!-- AutoroutingHandler&#45;&gt;AutoroutingsModule -->
<g id="edge1" class="edge">
<title>AutoroutingHandler&#45;&gt;AutoroutingsModule</title>
<path fill="none" stroke="black" d="M695,-122.11C695,-141.34 695,-169 695,-169 695,-169 486.05,-169 486.05,-169"/>
<polygon fill="black" stroke="black" points="486.05,-165.5 476.05,-169 486.05,-172.5 486.05,-165.5"/>
</g>
<!-- AutoroutingsService -->
<g id="node2" class="node">
<title>AutoroutingsService</title>
<ellipse fill="#fdb462" stroke="black" cx="497" cy="-104" rx="90.91" ry="18"/>
<text text-anchor="middle" x="497" y="-99.8" font-family="Times,serif" font-size="14.00">AutoroutingsService</text>
</g>
<!-- AutoroutingsService&#45;&gt;AutoroutingsModule -->
<g id="edge2" class="edge">
<title>AutoroutingsService&#45;&gt;AutoroutingsModule</title>
<path fill="none" stroke="black" d="M440.88,-118.43C440.88,-118.43 440.88,-140.89 440.88,-140.89"/>
<polygon fill="black" stroke="black" points="437.38,-140.89 440.88,-150.89 444.38,-140.89 437.38,-140.89"/>
</g>
<!-- OrthancClient -->
<g id="node3" class="node">
<title>OrthancClient</title>
<ellipse fill="#fdb462" stroke="black" cx="322" cy="-104" rx="65.99" ry="18"/>
<text text-anchor="middle" x="322" y="-99.8" font-family="Times,serif" font-size="14.00">OrthancClient</text>
</g>
<!-- OrthancClient&#45;&gt;AutoroutingsModule -->
<g id="edge3" class="edge">
<title>OrthancClient&#45;&gt;AutoroutingsModule</title>
<path fill="none" stroke="black" d="M365.01,-117.78C365.01,-117.78 365.01,-140.55 365.01,-140.55"/>
<polygon fill="black" stroke="black" points="361.51,-140.55 365.01,-150.55 368.51,-140.55 361.51,-140.55"/>
</g>
<!-- ProcessingQueueService -->
<g id="node4" class="node">
<title>ProcessingQueueService</title>
<ellipse fill="#fdb462" stroke="black" cx="131" cy="-104" rx="107.06" ry="18"/>
<text text-anchor="middle" x="131" y="-99.8" font-family="Times,serif" font-size="14.00">ProcessingQueueService</text>
</g>
<!-- ProcessingQueueService&#45;&gt;AutoroutingsModule -->
<g id="edge4" class="edge">
<title>ProcessingQueueService&#45;&gt;AutoroutingsModule</title>
<path fill="none" stroke="black" d="M131,-122.11C131,-141.34 131,-169 131,-169 131,-169 332.06,-169 332.06,-169"/>
<polygon fill="black" stroke="black" points="332.06,-172.5 342.06,-169 332.06,-165.5 332.06,-172.5"/>
</g>
</g>
</svg>
