<?xml version="1.0" encoding="UTF-8" standalone="no"?>
<!DOCTYPE svg PUBLIC "-//W3C//DTD SVG 1.1//EN"
 "http://www.w3.org/Graphics/SVG/1.1/DTD/svg11.dtd">
<!-- Generated by graphviz version 2.47.0 (20210316.0004)
 -->
<!-- Title: dependencies Pages: 1 -->
<svg width="830pt" height="211pt"
 viewBox="0.00 0.00 830.00 211.00" xmlns="http://www.w3.org/2000/svg" xmlns:xlink="http://www.w3.org/1999/xlink">
<g id="graph0" class="graph" transform="scale(1 1) rotate(0) translate(4 207)">
<title>dependencies</title>
<polygon fill="white" stroke="transparent" points="-4,4 -4,-207 826,-207 826,4 -4,4"/>
<text text-anchor="start" x="390.01" y="-42.4" font-family="Times-12" font-weight="bold" font-size="14.00">Legend</text>
<polygon fill="#ffffb3" stroke="transparent" points="177,-10 177,-30 197,-30 197,-10 177,-10"/>
<text text-anchor="start" x="200.63" y="-15.4" font-family="Times-12" font-size="14.00"> &#160;Declarations</text>
<polygon fill="#8dd3c7" stroke="transparent" points="290,-10 290,-30 310,-30 310,-10 290,-10"/>
<text text-anchor="start" x="313.73" y="-15.4" font-family="Times-12" font-size="14.00"> &#160;Module</text>
<polygon fill="#80b1d3" stroke="transparent" points="376,-10 376,-30 396,-30 396,-10 376,-10"/>
<text text-anchor="start" x="399.78" y="-15.4" font-family="Times-12" font-size="14.00"> &#160;Bootstrap</text>
<polygon fill="#fdb462" stroke="transparent" points="473,-10 473,-30 493,-30 493,-10 473,-10"/>
<text text-anchor="start" x="496.67" y="-15.4" font-family="Times-12" font-size="14.00"> &#160;Providers</text>
<polygon fill="#fb8072" stroke="transparent" points="569,-10 569,-30 589,-30 589,-10 569,-10"/>
<text text-anchor="start" x="592.73" y="-15.4" font-family="Times-12" font-size="14.00"> &#160;Exports</text>
<g id="clust1" class="cluster">
<title>cluster_SeederModule</title>
<polygon fill="none" stroke="black" stroke-dasharray="1,5" points="8,-70 8,-195 814,-195 814,-70 8,-70"/>
</g>
<g id="clust6" class="cluster">
<title>cluster_SeederModule_providers</title>
<polygon fill="none" stroke="black" points="16,-78 16,-130 806,-130 806,-78 16,-78"/>
</g>
<!-- OauthConfigService -->
<g id="node1" class="node">
<title>OauthConfigService</title>
<ellipse fill="#fdb462" stroke="black" cx="708" cy="-104" rx="90.33" ry="18"/>
<text text-anchor="middle" x="708" y="-99.8" font-family="Times,serif" font-size="14.00">OauthConfigService</text>
</g>
<!-- SeederModule -->
<g id="node6" class="node">
<title>SeederModule</title>
<polygon fill="#8dd3c7" stroke="black" points="426.64,-187 423.64,-191 402.64,-191 399.64,-187 329.36,-187 329.36,-151 426.64,-151 426.64,-187"/>
<text text-anchor="middle" x="378" y="-164.8" font-family="Times,serif" font-size="14.00">SeederModule</text>
</g>
<!-- OauthConfigService&#45;&gt;SeederModule -->
<g id="edge1" class="edge">
<title>OauthConfigService&#45;&gt;SeederModule</title>
<path fill="none" stroke="black" d="M708,-122.28C708,-143.32 708,-175 708,-175 708,-175 436.69,-175 436.69,-175"/>
<polygon fill="black" stroke="black" points="436.69,-171.5 426.69,-175 436.69,-178.5 436.69,-171.5"/>
</g>
<!-- OptionsService -->
<g id="node2" class="node">
<title>OptionsService</title>
<ellipse fill="#fdb462" stroke="black" cx="529" cy="-104" rx="70.64" ry="18"/>
<text text-anchor="middle" x="529" y="-99.8" font-family="Times,serif" font-size="14.00">OptionsService</text>
</g>
<!-- OptionsService&#45;&gt;SeederModule -->
<g id="edge2" class="edge">
<title>OptionsService&#45;&gt;SeederModule</title>
<path fill="none" stroke="black" d="M529,-122.02C529,-139.37 529,-163 529,-163 529,-163 437.03,-163 437.03,-163"/>
<polygon fill="black" stroke="black" points="437.03,-159.5 427.03,-163 437.03,-166.5 437.03,-159.5"/>
</g>
<!-- RolesService -->
<g id="node3" class="node">
<title>RolesService</title>
<ellipse fill="#fdb462" stroke="black" cx="378" cy="-104" rx="61.97" ry="18"/>
<text text-anchor="middle" x="378" y="-99.8" font-family="Times,serif" font-size="14.00">RolesService</text>
</g>
<!-- RolesService&#45;&gt;SeederModule -->
<g id="edge3" class="edge">
<title>RolesService&#45;&gt;SeederModule</title>
<path fill="none" stroke="black" d="M378,-122.11C378,-122.11 378,-140.99 378,-140.99"/>
<polygon fill="black" stroke="black" points="374.5,-140.99 378,-150.99 381.5,-140.99 374.5,-140.99"/>
</g>
<!-- SeederService -->
<g id="node4" class="node">
<title>SeederService</title>
<ellipse fill="#fdb462" stroke="black" cx="232" cy="-104" rx="66.03" ry="18"/>
<text text-anchor="middle" x="232" y="-99.8" font-family="Times,serif" font-size="14.00">SeederService</text>
</g>
<!-- SeederService&#45;&gt;SeederModule -->
<g id="edge4" class="edge">
<title>SeederService&#45;&gt;SeederModule</title>
<path fill="none" stroke="black" d="M232,-122.02C232,-139.37 232,-163 232,-163 232,-163 318.98,-163 318.98,-163"/>
<polygon fill="black" stroke="black" points="318.98,-166.5 328.98,-163 318.98,-159.5 318.98,-166.5"/>
</g>
<!-- UsersService -->
<g id="node5" class="node">
<title>UsersService</title>
<ellipse fill="#fdb462" stroke="black" cx="86" cy="-104" rx="61.95" ry="18"/>
<text text-anchor="middle" x="86" y="-99.8" font-family="Times,serif" font-size="14.00">UsersService</text>
</g>
<!-- UsersService&#45;&gt;SeederModule -->
<g id="edge5" class="edge">
<title>UsersService&#45;&gt;SeederModule</title>
<path fill="none" stroke="black" d="M86,-122.28C86,-143.32 86,-175 86,-175 86,-175 319.13,-175 319.13,-175"/>
<polygon fill="black" stroke="black" points="319.13,-178.5 329.13,-175 319.13,-171.5 319.13,-178.5"/>
</g>
</g>
</svg>
