<?xml version="1.0" encoding="UTF-8" standalone="no"?>
<!DOCTYPE svg PUBLIC "-//W3C//DTD SVG 1.1//EN"
 "http://www.w3.org/Graphics/SVG/1.1/DTD/svg11.dtd">
<!-- Generated by graphviz version 2.47.0 (20210316.0004)
 -->
<!-- Title: dependencies Pages: 1 -->
<svg width="647pt" height="211pt"
 viewBox="0.00 0.00 647.00 211.00" xmlns="http://www.w3.org/2000/svg" xmlns:xlink="http://www.w3.org/1999/xlink">
<g id="graph0" class="graph" transform="scale(1 1) rotate(0) translate(4 207)">
<title>dependencies</title>
<polygon fill="white" stroke="transparent" points="-4,4 -4,-207 643,-207 643,4 -4,4"/>
<text text-anchor="start" x="298.51" y="-42.4" font-family="Times-12" font-weight="bold" font-size="14.00">Legend</text>
<polygon fill="#ffffb3" stroke="transparent" points="85.5,-10 85.5,-30 105.5,-30 105.5,-10 85.5,-10"/>
<text text-anchor="start" x="109.13" y="-15.4" font-family="Times-12" font-size="14.00"> &#160;Declarations</text>
<polygon fill="#8dd3c7" stroke="transparent" points="198.5,-10 198.5,-30 218.5,-30 218.5,-10 198.5,-10"/>
<text text-anchor="start" x="222.23" y="-15.4" font-family="Times-12" font-size="14.00"> &#160;Module</text>
<polygon fill="#80b1d3" stroke="transparent" points="284.5,-10 284.5,-30 304.5,-30 304.5,-10 284.5,-10"/>
<text text-anchor="start" x="308.28" y="-15.4" font-family="Times-12" font-size="14.00"> &#160;Bootstrap</text>
<polygon fill="#fdb462" stroke="transparent" points="381.5,-10 381.5,-30 401.5,-30 401.5,-10 381.5,-10"/>
<text text-anchor="start" x="405.17" y="-15.4" font-family="Times-12" font-size="14.00"> &#160;Providers</text>
<polygon fill="#fb8072" stroke="transparent" points="477.5,-10 477.5,-30 497.5,-30 497.5,-10 477.5,-10"/>
<text text-anchor="start" x="501.23" y="-15.4" font-family="Times-12" font-size="14.00"> &#160;Exports</text>
<g id="clust1" class="cluster">
<title>cluster_QueueModule</title>
<polygon fill="none" stroke="black" stroke-dasharray="1,5" points="8,-70 8,-195 631,-195 631,-70 8,-70"/>
</g>
<g id="clust6" class="cluster">
<title>cluster_QueueModule_providers</title>
<polygon fill="none" stroke="black" points="16,-78 16,-130 623,-130 623,-78 16,-78"/>
</g>
<!-- QueuesAnonService -->
<g id="node1" class="node">
<title>QueuesAnonService</title>
<ellipse fill="#fdb462" stroke="black" cx="525" cy="-104" rx="90.31" ry="18"/>
<text text-anchor="middle" x="525" y="-99.8" font-family="Times,serif" font-size="14.00">QueuesAnonService</text>
</g>
<!-- QueueModule -->
<g id="node4" class="node">
<title>QueueModule</title>
<polygon fill="#8dd3c7" stroke="black" points="370.09,-187 367.09,-191 346.09,-191 343.09,-187 273.91,-187 273.91,-151 370.09,-151 370.09,-187"/>
<text text-anchor="middle" x="322" y="-164.8" font-family="Times,serif" font-size="14.00">QueueModule</text>
</g>
<!-- QueuesAnonService&#45;&gt;QueueModule -->
<g id="edge1" class="edge">
<title>QueuesAnonService&#45;&gt;QueueModule</title>
<path fill="none" stroke="black" d="M525,-122.11C525,-141.34 525,-169 525,-169 525,-169 380.11,-169 380.11,-169"/>
<polygon fill="black" stroke="black" points="380.11,-165.5 370.11,-169 380.11,-172.5 380.11,-165.5"/>
</g>
<!-- QueuesDeleteService -->
<g id="node2" class="node">
<title>QueuesDeleteService</title>
<ellipse fill="#fdb462" stroke="black" cx="322" cy="-104" rx="94.3" ry="18"/>
<text text-anchor="middle" x="322" y="-99.8" font-family="Times,serif" font-size="14.00">QueuesDeleteService</text>
</g>
<!-- QueuesDeleteService&#45;&gt;QueueModule -->
<g id="edge2" class="edge">
<title>QueuesDeleteService&#45;&gt;QueueModule</title>
<path fill="none" stroke="black" d="M322,-122.11C322,-122.11 322,-140.99 322,-140.99"/>
<polygon fill="black" stroke="black" points="318.5,-140.99 322,-150.99 325.5,-140.99 318.5,-140.99"/>
</g>
<!-- QueuesQueryService -->
<g id="node3" class="node">
<title>QueuesQueryService</title>
<ellipse fill="#fdb462" stroke="black" cx="117" cy="-104" rx="93.16" ry="18"/>
<text text-anchor="middle" x="117" y="-99.8" font-family="Times,serif" font-size="14.00">QueuesQueryService</text>
</g>
<!-- QueuesQueryService&#45;&gt;QueueModule -->
<g id="edge3" class="edge">
<title>QueuesQueryService&#45;&gt;QueueModule</title>
<path fill="none" stroke="black" d="M117,-122.11C117,-141.34 117,-169 117,-169 117,-169 263.94,-169 263.94,-169"/>
<polygon fill="black" stroke="black" points="263.94,-172.5 273.94,-169 263.94,-165.5 263.94,-172.5"/>
</g>
</g>
</svg>
