<?xml version="1.0" encoding="UTF-8" standalone="no"?>
<!DOCTYPE svg PUBLIC "-//W3C//DTD SVG 1.1//EN"
 "http://www.w3.org/Graphics/SVG/1.1/DTD/svg11.dtd">
<!-- Generated by graphviz version 2.47.0 (20210316.0004)
 -->
<!-- Title: dependencies Pages: 1 -->
<svg width="3510pt" height="352pt"
 viewBox="0.00 0.00 3510.00 352.00" xmlns="http://www.w3.org/2000/svg" xmlns:xlink="http://www.w3.org/1999/xlink">
<g id="graph0" class="graph" transform="scale(1 1) rotate(0) translate(4 348)">
<title>dependencies</title>
<polygon fill="white" stroke="transparent" points="-4,4 -4,-348 3506,-348 3506,4 -4,4"/>
<text text-anchor="start" x="1730.01" y="-42.4" font-family="Times-12" font-weight="bold" font-size="14.00">Legend</text>
<polygon fill="#ffffb3" stroke="transparent" points="1517,-10 1517,-30 1537,-30 1537,-10 1517,-10"/>
<text text-anchor="start" x="1540.63" y="-15.4" font-family="Times-12" font-size="14.00"> &#160;Declarations</text>
<polygon fill="#8dd3c7" stroke="transparent" points="1630,-10 1630,-30 1650,-30 1650,-10 1630,-10"/>
<text text-anchor="start" x="1653.73" y="-15.4" font-family="Times-12" font-size="14.00"> &#160;Module</text>
<polygon fill="#80b1d3" stroke="transparent" points="1716,-10 1716,-30 1736,-30 1736,-10 1716,-10"/>
<text text-anchor="start" x="1739.78" y="-15.4" font-family="Times-12" font-size="14.00"> &#160;Bootstrap</text>
<polygon fill="#fdb462" stroke="transparent" points="1813,-10 1813,-30 1833,-30 1833,-10 1813,-10"/>
<text text-anchor="start" x="1836.67" y="-15.4" font-family="Times-12" font-size="14.00"> &#160;Providers</text>
<polygon fill="#fb8072" stroke="transparent" points="1909,-10 1909,-30 1929,-30 1929,-10 1909,-10"/>
<text text-anchor="start" x="1932.73" y="-15.4" font-family="Times-12" font-size="14.00"> &#160;Exports</text>
<g id="clust1" class="cluster">
<title>cluster_AppModule</title>
<polygon fill="none" stroke="black" stroke-dasharray="1,5" points="750,-146 750,-336 2279,-336 2279,-146 750,-146"/>
</g>
<g id="clust3" class="cluster">
<title>cluster_AppModule_imports</title>
<polygon fill="none" stroke="black" points="934,-154 934,-271 2271,-271 2271,-154 934,-154"/>
</g>
<g id="clust6" class="cluster">
<title>cluster_AppModule_providers</title>
<polygon fill="none" stroke="black" points="758,-219 758,-271 926,-271 926,-219 758,-219"/>
</g>
<g id="clust7" class="cluster">
<title>cluster_AuthModule</title>
<polygon fill="none" stroke="black" stroke-dasharray="1,5" points="2296,-70 2296,-138 3494,-138 3494,-70 2296,-70"/>
</g>
<g id="clust10" class="cluster">
<title>cluster_AuthModule_exports</title>
<polygon fill="none" stroke="black" points="3380,-78 3380,-130 3486,-130 3486,-78 3380,-78"/>
</g>
<g id="clust12" class="cluster">
<title>cluster_AuthModule_providers</title>
<polygon fill="none" stroke="black" points="2304,-78 2304,-130 3372,-130 3372,-78 2304,-78"/>
</g>
<g id="clust13" class="cluster">
<title>cluster_AutoroutingsModule</title>
<polygon fill="none" stroke="black" stroke-dasharray="1,5" points="1496,-70 1496,-138 2288,-138 2288,-70 1496,-70"/>
</g>
<g id="clust18" class="cluster">
<title>cluster_AutoroutingsModule_providers</title>
<polygon fill="none" stroke="black" points="1504,-78 1504,-130 2280,-130 2280,-78 1504,-78"/>
</g>
<g id="clust19" class="cluster">
<title>cluster_LabelsModule</title>
<polygon fill="none" stroke="black" stroke-dasharray="1,5" points="57,-70 57,-138 221,-138 221,-70 57,-70"/>
</g>
<g id="clust24" class="cluster">
<title>cluster_LabelsModule_providers</title>
<polygon fill="none" stroke="black" points="65,-78 65,-130 213,-130 213,-78 65,-78"/>
</g>
<g id="clust37" class="cluster">
<title>cluster_OptionsModule</title>
<polygon fill="none" stroke="black" stroke-dasharray="1,5" points="229,-70 229,-138 403,-138 403,-70 229,-70"/>
</g>
<g id="clust42" class="cluster">
<title>cluster_OptionsModule_providers</title>
<polygon fill="none" stroke="black" points="237,-78 237,-130 395,-130 395,-78 237,-78"/>
</g>
<g id="clust55" class="cluster">
<title>cluster_QueueModule</title>
<polygon fill="none" stroke="black" stroke-dasharray="1,5" points="411,-70 411,-138 1034,-138 1034,-70 411,-70"/>
</g>
<g id="clust60" class="cluster">
<title>cluster_QueueModule_providers</title>
<polygon fill="none" stroke="black" points="419,-78 419,-130 1026,-130 1026,-78 419,-78"/>
</g>
<g id="clust61" class="cluster">
<title>cluster_RolesModule</title>
<polygon fill="none" stroke="black" stroke-dasharray="1,5" points="1214,-70 1214,-138 1488,-138 1488,-70 1214,-70"/>
</g>
<g id="clust64" class="cluster">
<title>cluster_RolesModule_exports</title>
<polygon fill="none" stroke="black" points="1222,-78 1222,-130 1332,-130 1332,-78 1222,-78"/>
</g>
<g id="clust66" class="cluster">
<title>cluster_RolesModule_providers</title>
<polygon fill="none" stroke="black" points="1340,-78 1340,-130 1480,-130 1480,-78 1340,-78"/>
</g>
<g id="clust67" class="cluster">
<title>cluster_SeederModule</title>
<polygon fill="none" stroke="black" stroke-dasharray="1,5" points="1042,-70 1042,-138 1206,-138 1206,-70 1042,-70"/>
</g>
<g id="clust72" class="cluster">
<title>cluster_SeederModule_providers</title>
<polygon fill="none" stroke="black" points="1050,-78 1050,-130 1198,-130 1198,-78 1050,-78"/>
</g>
<g id="clust73" class="cluster">
<title>cluster_TasksModule</title>
<polygon fill="none" stroke="black" stroke-dasharray="1,5" points="8,-211 8,-279 742,-279 742,-211 8,-211"/>
</g>
<g id="clust76" class="cluster">
<title>cluster_TasksModule_exports</title>
<polygon fill="none" stroke="black" points="426,-219 426,-271 734,-271 734,-219 426,-219"/>
</g>
<g id="clust78" class="cluster">
<title>cluster_TasksModule_providers</title>
<polygon fill="none" stroke="black" points="16,-219 16,-271 418,-271 418,-219 16,-219"/>
</g>
<!-- AuthModule -->
<g id="node1" class="node">
<title>AuthModule</title>
<polygon fill="#8dd3c7" stroke="black" points="2262.55,-263 2259.55,-267 2238.55,-267 2235.55,-263 2175.45,-263 2175.45,-227 2262.55,-227 2262.55,-263"/>
<text text-anchor="middle" x="2219" y="-240.8" font-family="Times,serif" font-size="14.00">AuthModule</text>
</g>
<!-- AppModule -->
<g id="node14" class="node">
<title>AppModule</title>
<polygon fill="#8dd3c7" stroke="black" points="1612.66,-328 1609.66,-332 1588.66,-332 1585.66,-328 1529.34,-328 1529.34,-292 1612.66,-292 1612.66,-328"/>
<text text-anchor="middle" x="1571" y="-305.8" font-family="Times,serif" font-size="14.00">AppModule</text>
</g>
<!-- AuthModule&#45;&gt;AppModule -->
<g id="edge1" class="edge">
<title>AuthModule&#45;&gt;AppModule</title>
<path fill="none" stroke="black" d="M2219,-263.09C2219,-286.13 2219,-323 2219,-323 2219,-323 1623.02,-323 1623.02,-323"/>
<polygon fill="black" stroke="black" points="1623.02,-319.5 1613.02,-323 1623.02,-326.5 1623.02,-319.5"/>
</g>
<!-- AuthService  -->
<g id="node16" class="node">
<title>AuthService </title>
<polygon fill="#fb8072" stroke="black" points="3477.98,-122 3388.02,-122 3388.02,-86 3477.98,-86 3477.98,-122"/>
<text text-anchor="middle" x="3433" y="-99.8" font-family="Times,serif" font-size="14.00">AuthService </text>
</g>
<!-- AuthModule&#45;&gt;AuthService  -->
<g id="edge16" class="edge">
<title>AuthModule&#45;&gt;AuthService </title>
<path fill="none" stroke="black" stroke-dasharray="5,2" d="M2262.56,-259C2479.52,-259 3433,-259 3433,-259 3433,-259 3433,-132.08 3433,-132.08"/>
<polygon fill="black" stroke="black" points="3436.5,-132.08 3433,-122.08 3429.5,-132.08 3436.5,-132.08"/>
</g>
<!-- AutoroutingsModule -->
<g id="node2" class="node">
<title>AutoroutingsModule</title>
<polygon fill="#8dd3c7" stroke="black" points="1899.93,-198 1896.93,-202 1875.93,-202 1872.93,-198 1766.07,-198 1766.07,-162 1899.93,-162 1899.93,-198"/>
<text text-anchor="middle" x="1833" y="-175.8" font-family="Times,serif" font-size="14.00">AutoroutingsModule</text>
</g>
<!-- AutoroutingsModule&#45;&gt;AppModule -->
<g id="edge2" class="edge">
<title>AutoroutingsModule&#45;&gt;AppModule</title>
<path fill="none" stroke="black" d="M1842.02,-198.15C1842.02,-232.36 1842.02,-303 1842.02,-303 1842.02,-303 1622.75,-303 1622.75,-303"/>
<polygon fill="black" stroke="black" points="1622.75,-299.5 1612.75,-303 1622.75,-306.5 1622.75,-299.5"/>
</g>
<!-- LabelsModule -->
<g id="node3" class="node">
<title>LabelsModule</title>
<polygon fill="#8dd3c7" stroke="black" points="1038.37,-198 1035.37,-202 1014.37,-202 1011.37,-198 941.63,-198 941.63,-162 1038.37,-162 1038.37,-198"/>
<text text-anchor="middle" x="990" y="-175.8" font-family="Times,serif" font-size="14.00">LabelsModule</text>
</g>
<!-- LabelsModule&#45;&gt;AppModule -->
<g id="edge3" class="edge">
<title>LabelsModule&#45;&gt;AppModule</title>
<path fill="none" stroke="black" d="M990,-198.11C990,-236.59 990,-323 990,-323 990,-323 1519.22,-323 1519.22,-323"/>
<polygon fill="black" stroke="black" points="1519.22,-326.5 1529.22,-323 1519.22,-319.5 1519.22,-326.5"/>
</g>
<!-- MailModule -->
<g id="node4" class="node">
<title>MailModule</title>
<polygon fill="#8dd3c7" stroke="black" points="2112.99,-198 2109.99,-202 2088.99,-202 2085.99,-198 2027.01,-198 2027.01,-162 2112.99,-162 2112.99,-198"/>
<text text-anchor="middle" x="2070" y="-175.8" font-family="Times,serif" font-size="14.00">MailModule</text>
</g>
<!-- MailModule&#45;&gt;AppModule -->
<g id="edge4" class="edge">
<title>MailModule&#45;&gt;AppModule</title>
<path fill="none" stroke="black" d="M2070,-198.21C2070,-234.64 2070,-313 2070,-313 2070,-313 1622.69,-313 1622.69,-313"/>
<polygon fill="black" stroke="black" points="1622.69,-309.5 1612.69,-313 1622.69,-316.5 1622.69,-309.5"/>
</g>
<!-- OauthConfigModule -->
<g id="node5" class="node">
<title>OauthConfigModule</title>
<polygon fill="#8dd3c7" stroke="black" points="2263.15,-198 2260.15,-202 2239.15,-202 2236.15,-198 2130.85,-198 2130.85,-162 2263.15,-162 2263.15,-198"/>
<text text-anchor="middle" x="2197" y="-175.8" font-family="Times,serif" font-size="14.00">OauthConfigModule</text>
</g>
<!-- OauthConfigModule&#45;&gt;AppModule -->
<g id="edge5" class="edge">
<title>OauthConfigModule&#45;&gt;AppModule</title>
<path fill="none" stroke="black" d="M2152.95,-198.04C2152.95,-235.45 2152.95,-318 2152.95,-318 2152.95,-318 1622.85,-318 1622.85,-318"/>
<polygon fill="black" stroke="black" points="1622.85,-314.5 1612.85,-318 1622.85,-321.5 1622.85,-314.5"/>
</g>
<!-- OptionsModule -->
<g id="node6" class="node">
<title>OptionsModule</title>
<polygon fill="#8dd3c7" stroke="black" points="1159.88,-198 1156.88,-202 1135.88,-202 1132.88,-198 1056.12,-198 1056.12,-162 1159.88,-162 1159.88,-198"/>
<text text-anchor="middle" x="1108" y="-175.8" font-family="Times,serif" font-size="14.00">OptionsModule</text>
</g>
<!-- OptionsModule&#45;&gt;AppModule -->
<g id="edge6" class="edge">
<title>OptionsModule&#45;&gt;AppModule</title>
<path fill="none" stroke="black" d="M1108,-198.06C1108,-235.05 1108,-316 1108,-316 1108,-316 1519.1,-316 1519.1,-316"/>
<polygon fill="black" stroke="black" points="1519.1,-319.5 1529.1,-316 1519.1,-312.5 1519.1,-319.5"/>
</g>
<!-- OrthancModule -->
<g id="node7" class="node">
<title>OrthancModule</title>
<polygon fill="#8dd3c7" stroke="black" points="1784.14,-263 1781.14,-267 1760.14,-267 1757.14,-263 1679.86,-263 1679.86,-227 1784.14,-227 1784.14,-263"/>
<text text-anchor="middle" x="1732" y="-240.8" font-family="Times,serif" font-size="14.00">OrthancModule</text>
</g>
<!-- OrthancModule&#45;&gt;AppModule -->
<g id="edge7" class="edge">
<title>OrthancModule&#45;&gt;AppModule</title>
<path fill="none" stroke="black" d="M1679.8,-254C1639.18,-254 1589.66,-254 1589.66,-254 1589.66,-254 1589.66,-281.97 1589.66,-281.97"/>
<polygon fill="black" stroke="black" points="1586.16,-281.97 1589.66,-291.97 1593.16,-281.97 1586.16,-281.97"/>
</g>
<!-- ProcessingModule -->
<g id="node8" class="node">
<title>ProcessingModule</title>
<polygon fill="#8dd3c7" stroke="black" points="1748.2,-198 1745.2,-202 1724.2,-202 1721.2,-198 1627.8,-198 1627.8,-162 1748.2,-162 1748.2,-198"/>
<text text-anchor="middle" x="1688" y="-175.8" font-family="Times,serif" font-size="14.00">ProcessingModule</text>
</g>
<!-- ProcessingModule&#45;&gt;AppModule -->
<g id="edge8" class="edge">
<title>ProcessingModule&#45;&gt;AppModule</title>
<path fill="none" stroke="black" d="M1653.79,-198.18C1653.79,-231.28 1653.79,-298 1653.79,-298 1653.79,-298 1622.88,-298 1622.88,-298"/>
<polygon fill="black" stroke="black" points="1622.88,-294.5 1612.88,-298 1622.88,-301.5 1622.88,-294.5"/>
</g>
<!-- QueueModule -->
<g id="node9" class="node">
<title>QueueModule</title>
<polygon fill="#8dd3c7" stroke="black" points="1274.09,-198 1271.09,-202 1250.09,-202 1247.09,-198 1177.91,-198 1177.91,-162 1274.09,-162 1274.09,-198"/>
<text text-anchor="middle" x="1226" y="-175.8" font-family="Times,serif" font-size="14.00">QueueModule</text>
</g>
<!-- QueueModule&#45;&gt;AppModule -->
<g id="edge9" class="edge">
<title>QueueModule&#45;&gt;AppModule</title>
<path fill="none" stroke="black" d="M1226,-198.08C1226,-233.8 1226,-310 1226,-310 1226,-310 1519.04,-310 1519.04,-310"/>
<polygon fill="black" stroke="black" points="1519.04,-313.5 1529.04,-310 1519.04,-306.5 1519.04,-313.5"/>
</g>
<!-- RolesModule -->
<g id="node10" class="node">
<title>RolesModule</title>
<polygon fill="#8dd3c7" stroke="black" points="1493.94,-198 1490.94,-202 1469.94,-202 1466.94,-198 1402.06,-198 1402.06,-162 1493.94,-162 1493.94,-198"/>
<text text-anchor="middle" x="1448" y="-175.8" font-family="Times,serif" font-size="14.00">RolesModule</text>
</g>
<!-- RolesModule&#45;&gt;OrthancModule -->
<g id="edge31" class="edge">
<title>RolesModule&#45;&gt;OrthancModule</title>
<path fill="none" stroke="black" d="M1463.24,-198.03C1463.24,-214.4 1463.24,-236 1463.24,-236 1463.24,-236 1669.86,-236 1669.86,-236"/>
<polygon fill="black" stroke="black" points="1669.86,-239.5 1679.86,-236 1669.86,-232.5 1669.86,-239.5"/>
</g>
<!-- RolesModule&#45;&gt;AppModule -->
<g id="edge10" class="edge">
<title>RolesModule&#45;&gt;AppModule</title>
<path fill="none" stroke="black" d="M1432.76,-198.18C1432.76,-231.28 1432.76,-298 1432.76,-298 1432.76,-298 1519.15,-298 1519.15,-298"/>
<polygon fill="black" stroke="black" points="1519.15,-301.5 1529.15,-298 1519.15,-294.5 1519.15,-301.5"/>
</g>
<!-- RolesService  -->
<g id="node33" class="node">
<title>RolesService </title>
<polygon fill="#fb8072" stroke="black" points="1323.86,-122 1230.14,-122 1230.14,-86 1323.86,-86 1323.86,-122"/>
<text text-anchor="middle" x="1277" y="-99.8" font-family="Times,serif" font-size="14.00">RolesService </text>
</g>
<!-- RolesModule&#45;&gt;RolesService  -->
<g id="edge37" class="edge">
<title>RolesModule&#45;&gt;RolesService </title>
<path fill="none" stroke="black" stroke-dasharray="5,2" d="M1430.16,-161.76C1430.16,-154.57 1430.16,-148 1430.16,-148 1430.16,-148 1313.09,-148 1313.09,-148 1313.09,-148 1313.09,-132.15 1313.09,-132.15"/>
<polygon fill="black" stroke="black" points="1316.59,-132.15 1313.09,-122.15 1309.59,-132.15 1316.59,-132.15"/>
</g>
<!-- SeederModule -->
<g id="node11" class="node">
<title>SeederModule</title>
<polygon fill="#8dd3c7" stroke="black" points="1609.64,-198 1606.64,-202 1585.64,-202 1582.64,-198 1512.36,-198 1512.36,-162 1609.64,-162 1609.64,-198"/>
<text text-anchor="middle" x="1561" y="-175.8" font-family="Times,serif" font-size="14.00">SeederModule</text>
</g>
<!-- SeederModule&#45;&gt;AppModule -->
<g id="edge11" class="edge">
<title>SeederModule&#45;&gt;AppModule</title>
<path fill="none" stroke="black" d="M1569.5,-198.08C1569.5,-198.08 1569.5,-281.66 1569.5,-281.66"/>
<polygon fill="black" stroke="black" points="1566,-281.66 1569.5,-291.66 1573,-281.66 1566,-281.66"/>
</g>
<!-- TasksModule -->
<g id="node12" class="node">
<title>TasksModule</title>
<polygon fill="#8dd3c7" stroke="black" points="1384.21,-198 1381.21,-202 1360.21,-202 1357.21,-198 1291.79,-198 1291.79,-162 1384.21,-162 1384.21,-198"/>
<text text-anchor="middle" x="1338" y="-175.8" font-family="Times,serif" font-size="14.00">TasksModule</text>
</g>
<!-- TasksModule&#45;&gt;AppModule -->
<g id="edge12" class="edge">
<title>TasksModule&#45;&gt;AppModule</title>
<path fill="none" stroke="black" d="M1368.74,-198.03C1368.74,-232.42 1368.74,-304 1368.74,-304 1368.74,-304 1519.09,-304 1519.09,-304"/>
<polygon fill="black" stroke="black" points="1519.09,-307.5 1529.09,-304 1519.09,-300.5 1519.09,-307.5"/>
</g>
<!-- OrthancMonitoringTask  -->
<g id="node36" class="node">
<title>OrthancMonitoringTask </title>
<polygon fill="#fb8072" stroke="black" points="725.58,-263 570.42,-263 570.42,-227 725.58,-227 725.58,-263"/>
<text text-anchor="middle" x="648" y="-240.8" font-family="Times,serif" font-size="14.00">OrthancMonitoringTask </text>
</g>
<!-- TasksModule&#45;&gt;OrthancMonitoringTask  -->
<g id="edge46" class="edge">
<title>TasksModule&#45;&gt;OrthancMonitoringTask </title>
<path fill="none" stroke="black" stroke-dasharray="5,2" d="M1353.37,-198.06C1353.37,-209.44 1353.37,-222 1353.37,-222 1353.37,-222 679.69,-222 679.69,-222 679.69,-222 679.69,-222.49 679.69,-222.49"/>
<polygon fill="black" stroke="black" points="676.19,-216.88 679.69,-226.88 683.19,-216.88 676.19,-216.88"/>
</g>
<!-- QueryQueueTask  -->
<g id="node37" class="node">
<title>QueryQueueTask </title>
<polygon fill="#fb8072" stroke="black" points="552.23,-263 433.77,-263 433.77,-227 552.23,-227 552.23,-263"/>
<text text-anchor="middle" x="493" y="-240.8" font-family="Times,serif" font-size="14.00">QueryQueueTask </text>
</g>
<!-- TasksModule&#45;&gt;QueryQueueTask  -->
<g id="edge47" class="edge">
<title>TasksModule&#45;&gt;QueryQueueTask </title>
<path fill="none" stroke="black" stroke-dasharray="5,2" d="M1338,-198.42C1338,-207.28 1338,-216 1338,-216 1338,-216 493,-216 493,-216 493,-216 493,-217.08 493,-217.08"/>
<polygon fill="black" stroke="black" points="489.5,-216.8 493,-226.8 496.5,-216.8 489.5,-216.8"/>
</g>
<!-- UsersModule -->
<g id="node13" class="node">
<title>UsersModule</title>
<polygon fill="#8dd3c7" stroke="black" points="2008.92,-198 2005.92,-202 1984.92,-202 1981.92,-198 1917.08,-198 1917.08,-162 2008.92,-162 2008.92,-198"/>
<text text-anchor="middle" x="1963" y="-175.8" font-family="Times,serif" font-size="14.00">UsersModule</text>
</g>
<!-- UsersModule&#45;&gt;AuthModule -->
<g id="edge15" class="edge">
<title>UsersModule&#45;&gt;AuthModule</title>
<path fill="none" stroke="black" d="M1978.24,-198.28C1978.24,-219.32 1978.24,-251 1978.24,-251 1978.24,-251 2165.4,-251 2165.4,-251"/>
<polygon fill="black" stroke="black" points="2165.4,-254.5 2175.4,-251 2165.4,-247.5 2165.4,-254.5"/>
</g>
<!-- UsersModule&#45;&gt;AppModule -->
<g id="edge13" class="edge">
<title>UsersModule&#45;&gt;AppModule</title>
<path fill="none" stroke="black" d="M1947.76,-198.07C1947.76,-233.35 1947.76,-308 1947.76,-308 1947.76,-308 1622.76,-308 1622.76,-308"/>
<polygon fill="black" stroke="black" points="1622.76,-304.5 1612.76,-308 1622.76,-311.5 1622.76,-304.5"/>
</g>
<!-- ProcessingClient -->
<g id="node15" class="node">
<title>ProcessingClient</title>
<ellipse fill="#fdb462" stroke="black" cx="842" cy="-245" rx="76.46" ry="18"/>
<text text-anchor="middle" x="842" y="-240.8" font-family="Times,serif" font-size="14.00">ProcessingClient</text>
</g>
<!-- ProcessingClient&#45;&gt;AppModule -->
<g id="edge14" class="edge">
<title>ProcessingClient&#45;&gt;AppModule</title>
<path fill="none" stroke="black" d="M918.71,-245C1101.82,-245 1549.33,-245 1549.33,-245 1549.33,-245 1549.33,-281.89 1549.33,-281.89"/>
<polygon fill="black" stroke="black" points="1545.83,-281.89 1549.33,-291.89 1552.83,-281.89 1545.83,-281.89"/>
</g>
<!-- AuthService -->
<g id="node17" class="node">
<title>AuthService</title>
<ellipse fill="#fdb462" stroke="black" cx="2712" cy="-104" rx="59.11" ry="18"/>
<text text-anchor="middle" x="2712" y="-99.8" font-family="Times,serif" font-size="14.00">AuthService</text>
</g>
<!-- AuthService&#45;&gt;AuthModule -->
<g id="edge17" class="edge">
<title>AuthService&#45;&gt;AuthModule</title>
<path fill="none" stroke="black" d="M2712,-122.21C2712,-159.06 2712,-239 2712,-239 2712,-239 2272.75,-239 2272.75,-239"/>
<polygon fill="black" stroke="black" points="2272.75,-235.5 2262.75,-239 2272.75,-242.5 2272.75,-235.5"/>
</g>
<!-- JwtOauthStrategy -->
<g id="node18" class="node">
<title>JwtOauthStrategy</title>
<ellipse fill="#fdb462" stroke="black" cx="2870" cy="-104" rx="80.45" ry="18"/>
<text text-anchor="middle" x="2870" y="-99.8" font-family="Times,serif" font-size="14.00">JwtOauthStrategy</text>
</g>
<!-- JwtOauthStrategy&#45;&gt;AuthModule -->
<g id="edge18" class="edge">
<title>JwtOauthStrategy&#45;&gt;AuthModule</title>
<path fill="none" stroke="black" d="M2870,-122.17C2870,-159.85 2870,-243 2870,-243 2870,-243 2272.72,-243 2272.72,-243"/>
<polygon fill="black" stroke="black" points="2272.72,-239.5 2262.72,-243 2272.72,-246.5 2272.72,-239.5"/>
</g>
<!-- JwtStrategy -->
<g id="node19" class="node">
<title>JwtStrategy</title>
<ellipse fill="#fdb462" stroke="black" cx="3025" cy="-104" rx="56.76" ry="18"/>
<text text-anchor="middle" x="3025" y="-99.8" font-family="Times,serif" font-size="14.00">JwtStrategy</text>
</g>
<!-- JwtStrategy&#45;&gt;AuthModule -->
<g id="edge19" class="edge">
<title>JwtStrategy&#45;&gt;AuthModule</title>
<path fill="none" stroke="black" d="M3025,-122.11C3025,-160.59 3025,-247 3025,-247 3025,-247 2272.62,-247 2272.62,-247"/>
<polygon fill="black" stroke="black" points="2272.62,-243.5 2262.62,-247 2272.62,-250.5 2272.62,-243.5"/>
</g>
<!-- LocalStrategy -->
<g id="node20" class="node">
<title>LocalStrategy</title>
<ellipse fill="#fdb462" stroke="black" cx="3165" cy="-104" rx="65.41" ry="18"/>
<text text-anchor="middle" x="3165" y="-99.8" font-family="Times,serif" font-size="14.00">LocalStrategy</text>
</g>
<!-- LocalStrategy&#45;&gt;AuthModule -->
<g id="edge20" class="edge">
<title>LocalStrategy&#45;&gt;AuthModule</title>
<path fill="none" stroke="black" d="M3165,-122.03C3165,-161.28 3165,-251 3165,-251 3165,-251 2272.73,-251 2272.73,-251"/>
<polygon fill="black" stroke="black" points="2272.73,-247.5 2262.73,-251 2272.73,-254.5 2272.73,-247.5"/>
</g>
<!-- MailService -->
<g id="node21" class="node">
<title>MailService</title>
<ellipse fill="#fdb462" stroke="black" cx="3306" cy="-104" rx="58.46" ry="18"/>
<text text-anchor="middle" x="3306" y="-99.8" font-family="Times,serif" font-size="14.00">MailService</text>
</g>
<!-- MailService&#45;&gt;AuthModule -->
<g id="edge21" class="edge">
<title>MailService&#45;&gt;AuthModule</title>
<path fill="none" stroke="black" d="M3306,-122.21C3306,-162.38 3306,-255 3306,-255 3306,-255 2272.62,-255 2272.62,-255"/>
<polygon fill="black" stroke="black" points="2272.62,-251.5 2262.62,-255 2272.62,-258.5 2272.62,-251.5"/>
</g>
<!-- OauthConfigService -->
<g id="node22" class="node">
<title>OauthConfigService</title>
<ellipse fill="#fdb462" stroke="black" cx="2544" cy="-104" rx="90.33" ry="18"/>
<text text-anchor="middle" x="2544" y="-99.8" font-family="Times,serif" font-size="14.00">OauthConfigService</text>
</g>
<!-- OauthConfigService&#45;&gt;AuthModule -->
<g id="edge22" class="edge">
<title>OauthConfigService&#45;&gt;AuthModule</title>
<path fill="none" stroke="black" d="M2589.21,-119.8C2589.21,-154.64 2589.21,-235 2589.21,-235 2589.21,-235 2272.56,-235 2272.56,-235"/>
<polygon fill="black" stroke="black" points="2272.56,-231.5 2262.56,-235 2272.56,-238.5 2272.56,-231.5"/>
</g>
<!-- OauthConfigService&#45;&gt;OauthConfigModule -->
<g id="edge29" class="edge">
<title>OauthConfigService&#45;&gt;OauthConfigModule</title>
<path fill="none" stroke="black" d="M2544,-122.01C2544,-144.49 2544,-180 2544,-180 2544,-180 2273.49,-180 2273.49,-180"/>
<polygon fill="black" stroke="black" points="2273.49,-176.5 2263.49,-180 2273.49,-183.5 2273.49,-176.5"/>
</g>
<!-- OauthConfigService&#45;&gt;SeederModule -->
<g id="edge41" class="edge">
<title>OauthConfigService&#45;&gt;SeederModule</title>
<path fill="none" stroke="black" d="M2498.79,-119.71C2498.79,-125.65 2498.79,-131 2498.79,-131 2498.79,-131 1590.29,-131 1590.29,-131 1590.29,-131 1590.29,-151.75 1590.29,-151.75"/>
<polygon fill="black" stroke="black" points="1586.79,-151.75 1590.29,-161.75 1593.79,-151.75 1586.79,-151.75"/>
</g>
<!-- UsersService -->
<g id="node23" class="node">
<title>UsersService</title>
<ellipse fill="#fdb462" stroke="black" cx="2374" cy="-104" rx="61.95" ry="18"/>
<text text-anchor="middle" x="2374" y="-99.8" font-family="Times,serif" font-size="14.00">UsersService</text>
</g>
<!-- UsersService&#45;&gt;AuthModule -->
<g id="edge23" class="edge">
<title>UsersService&#45;&gt;AuthModule</title>
<path fill="none" stroke="black" d="M2411.19,-118.57C2411.19,-151.93 2411.19,-231 2411.19,-231 2411.19,-231 2272.61,-231 2272.61,-231"/>
<polygon fill="black" stroke="black" points="2272.61,-227.5 2262.61,-231 2272.61,-234.5 2272.61,-227.5"/>
</g>
<!-- UsersService&#45;&gt;RolesModule -->
<g id="edge40" class="edge">
<title>UsersService&#45;&gt;RolesModule</title>
<path fill="none" stroke="black" d="M2336.81,-118.44C2336.81,-123.06 2336.81,-127 2336.81,-127 2336.81,-127 1482.85,-127 1482.85,-127 1482.85,-127 1482.85,-151.76 1482.85,-151.76"/>
<polygon fill="black" stroke="black" points="1479.35,-151.76 1482.85,-161.76 1486.35,-151.76 1479.35,-151.76"/>
</g>
<!-- UsersService&#45;&gt;SeederModule -->
<g id="edge45" class="edge">
<title>UsersService&#45;&gt;SeederModule</title>
<path fill="none" stroke="black" d="M2361.6,-121.9C2361.6,-125.91 2361.6,-129 2361.6,-129 2361.6,-129 1570.76,-129 1570.76,-129 1570.76,-129 1570.76,-151.88 1570.76,-151.88"/>
<polygon fill="black" stroke="black" points="1567.26,-151.88 1570.76,-161.88 1574.26,-151.88 1567.26,-151.88"/>
</g>
<!-- UsersService&#45;&gt;UsersModule -->
<g id="edge53" class="edge">
<title>UsersService&#45;&gt;UsersModule</title>
<path fill="none" stroke="black" d="M2386.4,-122.06C2386.4,-133.44 2386.4,-146 2386.4,-146 2386.4,-146 1991.6,-146 1991.6,-146 1991.6,-146 1991.6,-151.81 1991.6,-151.81"/>
<polygon fill="black" stroke="black" points="1988.1,-151.81 1991.6,-161.81 1995.1,-151.81 1988.1,-151.81"/>
</g>
<!-- AutoroutingHandler -->
<g id="node24" class="node">
<title>AutoroutingHandler</title>
<ellipse fill="#fdb462" stroke="black" cx="1833" cy="-104" rx="89.19" ry="18"/>
<text text-anchor="middle" x="1833" y="-99.8" font-family="Times,serif" font-size="14.00">AutoroutingHandler</text>
</g>
<!-- AutoroutingHandler&#45;&gt;AutoroutingsModule -->
<g id="edge24" class="edge">
<title>AutoroutingHandler&#45;&gt;AutoroutingsModule</title>
<path fill="none" stroke="black" d="M1819.66,-122.01C1819.66,-122.01 1819.66,-151.85 1819.66,-151.85"/>
<polygon fill="black" stroke="black" points="1816.16,-151.85 1819.66,-161.85 1823.16,-151.85 1816.16,-151.85"/>
</g>
<!-- AutoroutingsService -->
<g id="node25" class="node">
<title>AutoroutingsService</title>
<ellipse fill="#fdb462" stroke="black" cx="2181" cy="-104" rx="90.91" ry="18"/>
<text text-anchor="middle" x="2181" y="-99.8" font-family="Times,serif" font-size="14.00">AutoroutingsService</text>
</g>
<!-- AutoroutingsService&#45;&gt;AutoroutingsModule -->
<g id="edge25" class="edge">
<title>AutoroutingsService&#45;&gt;AutoroutingsModule</title>
<path fill="none" stroke="black" d="M2101.52,-112.88C2101.52,-124.66 2101.52,-144 2101.52,-144 2101.52,-144 1873.03,-144 1873.03,-144 1873.03,-144 1873.03,-151.58 1873.03,-151.58"/>
<polygon fill="black" stroke="black" points="1869.53,-151.58 1873.03,-161.58 1876.53,-151.58 1869.53,-151.58"/>
</g>
<!-- OrthancClient -->
<g id="node26" class="node">
<title>OrthancClient</title>
<ellipse fill="#fdb462" stroke="black" cx="2006" cy="-104" rx="65.99" ry="18"/>
<text text-anchor="middle" x="2006" y="-99.8" font-family="Times,serif" font-size="14.00">OrthancClient</text>
</g>
<!-- OrthancClient&#45;&gt;AutoroutingsModule -->
<g id="edge26" class="edge">
<title>OrthancClient&#45;&gt;AutoroutingsModule</title>
<path fill="none" stroke="black" d="M1974.48,-119.91C1974.48,-129.93 1974.48,-141 1974.48,-141 1974.48,-141 1846.34,-141 1846.34,-141 1846.34,-141 1846.34,-151.87 1846.34,-151.87"/>
<polygon fill="black" stroke="black" points="1842.84,-151.87 1846.34,-161.87 1849.84,-151.87 1842.84,-151.87"/>
</g>
<!-- OrthancClient&#45;&gt;OrthancModule -->
<g id="edge32" class="edge">
<title>OrthancClient&#45;&gt;OrthancModule</title>
<path fill="none" stroke="black" d="M2017.86,-121.93C2017.86,-158.65 2017.86,-239 2017.86,-239 2017.86,-239 1794.43,-239 1794.43,-239"/>
<polygon fill="black" stroke="black" points="1794.43,-235.5 1784.43,-239 1794.43,-242.5 1794.43,-235.5"/>
</g>
<!-- OrthancClient&#45;&gt;TasksModule -->
<g id="edge48" class="edge">
<title>OrthancClient&#45;&gt;TasksModule</title>
<path fill="none" stroke="black" d="M1957.37,-116.46C1957.37,-120.98 1957.37,-125 1957.37,-125 1957.37,-125 1366.06,-125 1366.06,-125 1366.06,-125 1366.06,-151.99 1366.06,-151.99"/>
<polygon fill="black" stroke="black" points="1362.56,-151.99 1366.06,-161.99 1369.56,-151.99 1362.56,-151.99"/>
</g>
<!-- ProcessingQueueService -->
<g id="node27" class="node">
<title>ProcessingQueueService</title>
<ellipse fill="#fdb462" stroke="black" cx="1619" cy="-104" rx="107.06" ry="18"/>
<text text-anchor="middle" x="1619" y="-99.8" font-family="Times,serif" font-size="14.00">ProcessingQueueService</text>
</g>
<!-- ProcessingQueueService&#45;&gt;AutoroutingsModule -->
<g id="edge27" class="edge">
<title>ProcessingQueueService&#45;&gt;AutoroutingsModule</title>
<path fill="none" stroke="black" d="M1693.32,-117.03C1693.32,-126.98 1693.32,-139 1693.32,-139 1693.32,-139 1792.97,-139 1792.97,-139 1792.97,-139 1792.97,-151.9 1792.97,-151.9"/>
<polygon fill="black" stroke="black" points="1789.47,-151.9 1792.97,-161.9 1796.47,-151.9 1789.47,-151.9"/>
</g>
<!-- ProcessingQueueService&#45;&gt;ProcessingModule -->
<g id="edge33" class="edge">
<title>ProcessingQueueService&#45;&gt;ProcessingModule</title>
<path fill="none" stroke="black" d="M1660.61,-120.87C1660.61,-120.87 1660.61,-151.85 1660.61,-151.85"/>
<polygon fill="black" stroke="black" points="1657.11,-151.85 1660.61,-161.85 1664.11,-151.85 1657.11,-151.85"/>
</g>
<!-- LabelsService -->
<g id="node28" class="node">
<title>LabelsService</title>
<ellipse fill="#fdb462" stroke="black" cx="139" cy="-104" rx="65.97" ry="18"/>
<text text-anchor="middle" x="139" y="-99.8" font-family="Times,serif" font-size="14.00">LabelsService</text>
</g>
<!-- LabelsService&#45;&gt;LabelsModule -->
<g id="edge28" class="edge">
<title>LabelsService&#45;&gt;LabelsModule</title>
<path fill="none" stroke="black" d="M194.11,-113.94C194.11,-134.54 194.11,-180 194.11,-180 194.11,-180 931.41,-180 931.41,-180"/>
<polygon fill="black" stroke="black" points="931.41,-183.5 941.41,-180 931.41,-176.5 931.41,-183.5"/>
</g>
<!-- LabelsService&#45;&gt;RolesModule -->
<g id="edge38" class="edge">
<title>LabelsService&#45;&gt;RolesModule</title>
<path fill="none" stroke="black" d="M188.13,-116.09C188.13,-129.71 188.13,-150 188.13,-150 188.13,-150 1416.22,-150 1416.22,-150 1416.22,-150 1416.22,-151.86 1416.22,-151.86"/>
<polygon fill="black" stroke="black" points="1412.72,-151.86 1416.22,-161.86 1419.72,-151.86 1412.72,-151.86"/>
</g>
<!-- OptionsService -->
<g id="node29" class="node">
<title>OptionsService</title>
<ellipse fill="#fdb462" stroke="black" cx="316" cy="-104" rx="70.64" ry="18"/>
<text text-anchor="middle" x="316" y="-99.8" font-family="Times,serif" font-size="14.00">OptionsService</text>
</g>
<!-- OptionsService&#45;&gt;OptionsModule -->
<g id="edge30" class="edge">
<title>OptionsService&#45;&gt;OptionsModule</title>
<path fill="none" stroke="black" d="M292.48,-121.11C292.48,-137.57 292.48,-160 292.48,-160 292.48,-160 1108.84,-160 1108.84,-160 1108.84,-160 1108.84,-160.18 1108.84,-160.18"/>
<polygon fill="black" stroke="black" points="1105.34,-151.85 1108.84,-161.85 1112.34,-151.85 1105.34,-151.85"/>
</g>
<!-- OptionsService&#45;&gt;SeederModule -->
<g id="edge42" class="edge">
<title>OptionsService&#45;&gt;SeederModule</title>
<path fill="none" stroke="black" d="M339.52,-121.27C339.52,-129.26 339.52,-137 339.52,-137 339.52,-137 1531.71,-137 1531.71,-137 1531.71,-137 1531.71,-151.51 1531.71,-151.51"/>
<polygon fill="black" stroke="black" points="1528.21,-151.51 1531.71,-161.51 1535.21,-151.51 1528.21,-151.51"/>
</g>
<!-- QueuesAnonService -->
<g id="node30" class="node">
<title>QueuesAnonService</title>
<ellipse fill="#fdb462" stroke="black" cx="724" cy="-104" rx="90.31" ry="18"/>
<text text-anchor="middle" x="724" y="-99.8" font-family="Times,serif" font-size="14.00">QueuesAnonService</text>
</g>
<!-- QueuesAnonService&#45;&gt;QueueModule -->
<g id="edge34" class="edge">
<title>QueuesAnonService&#45;&gt;QueueModule</title>
<path fill="none" stroke="black" d="M789.96,-116.32C789.96,-131.7 789.96,-156 789.96,-156 789.96,-156 1182.88,-156 1182.88,-156 1182.88,-156 1182.88,-156.58 1182.88,-156.58"/>
<polygon fill="black" stroke="black" points="1179.38,-151.81 1182.88,-161.81 1186.38,-151.81 1179.38,-151.81"/>
</g>
<!-- QueuesDeleteService -->
<g id="node31" class="node">
<title>QueuesDeleteService</title>
<ellipse fill="#fdb462" stroke="black" cx="521" cy="-104" rx="94.3" ry="18"/>
<text text-anchor="middle" x="521" y="-99.8" font-family="Times,serif" font-size="14.00">QueuesDeleteService</text>
</g>
<!-- QueuesDeleteService&#45;&gt;QueueModule -->
<g id="edge35" class="edge">
<title>QueuesDeleteService&#45;&gt;QueueModule</title>
<path fill="none" stroke="black" d="M592.68,-115.72C592.68,-131.6 592.68,-158 592.68,-158 592.68,-158 1180.42,-158 1180.42,-158 1180.42,-158 1180.42,-158.38 1180.42,-158.38"/>
<polygon fill="black" stroke="black" points="1176.92,-151.83 1180.42,-161.83 1183.92,-151.83 1176.92,-151.83"/>
</g>
<!-- QueuesQueryService -->
<g id="node32" class="node">
<title>QueuesQueryService</title>
<ellipse fill="#fdb462" stroke="black" cx="925" cy="-104" rx="93.16" ry="18"/>
<text text-anchor="middle" x="925" y="-99.8" font-family="Times,serif" font-size="14.00">QueuesQueryService</text>
</g>
<!-- QueuesQueryService&#45;&gt;QueueModule -->
<g id="edge36" class="edge">
<title>QueuesQueryService&#45;&gt;QueueModule</title>
<path fill="none" stroke="black" d="M967.07,-120.1C967.07,-134.71 967.07,-154 967.07,-154 967.07,-154 1185.34,-154 1185.34,-154 1185.34,-154 1185.34,-154.79 1185.34,-154.79"/>
<polygon fill="black" stroke="black" points="1181.84,-151.94 1185.34,-161.94 1188.84,-151.94 1181.84,-151.94"/>
</g>
<!-- QueuesQueryService&#45;&gt;TasksModule -->
<g id="edge51" class="edge">
<title>QueuesQueryService&#45;&gt;TasksModule</title>
<path fill="none" stroke="black" d="M992.57,-116.61C992.57,-130.83 992.57,-152 992.57,-152 992.57,-152 1302.49,-152 1302.49,-152 1302.49,-152 1302.49,-152.98 1302.49,-152.98"/>
<polygon fill="black" stroke="black" points="1298.99,-151.79 1302.49,-161.79 1305.99,-151.79 1298.99,-151.79"/>
</g>
<!-- RolesService -->
<g id="node34" class="node">
<title>RolesService</title>
<ellipse fill="#fdb462" stroke="black" cx="1410" cy="-104" rx="61.97" ry="18"/>
<text text-anchor="middle" x="1410" y="-99.8" font-family="Times,serif" font-size="14.00">RolesService</text>
</g>
<!-- RolesService&#45;&gt;RolesModule -->
<g id="edge39" class="edge">
<title>RolesService&#45;&gt;RolesModule</title>
<path fill="none" stroke="black" d="M1444.1,-119.38C1444.1,-119.38 1444.1,-151.97 1444.1,-151.97"/>
<polygon fill="black" stroke="black" points="1440.6,-151.97 1444.1,-161.97 1447.6,-151.97 1440.6,-151.97"/>
</g>
<!-- RolesService&#45;&gt;SeederModule -->
<g id="edge43" class="edge">
<title>RolesService&#45;&gt;SeederModule</title>
<path fill="none" stroke="black" d="M1472.19,-104C1489.1,-104 1502.84,-104 1502.84,-104 1502.84,-104 1502.84,-180 1502.84,-180 1502.84,-180 1503.78,-180 1503.78,-180"/>
<polygon fill="black" stroke="black" points="1502.19,-183.5 1512.19,-180 1502.19,-176.5 1502.19,-183.5"/>
</g>
<!-- RolesService&#45;&gt;UsersModule -->
<g id="edge52" class="edge">
<title>RolesService&#45;&gt;UsersModule</title>
<path fill="none" stroke="black" d="M1458.05,-115.46C1458.05,-123.57 1458.05,-133 1458.05,-133 1458.05,-133 1931.3,-133 1931.3,-133 1931.3,-133 1931.3,-151.96 1931.3,-151.96"/>
<polygon fill="black" stroke="black" points="1927.8,-151.96 1931.3,-161.96 1934.8,-151.96 1927.8,-151.96"/>
</g>
<!-- SeederService -->
<g id="node35" class="node">
<title>SeederService</title>
<ellipse fill="#fdb462" stroke="black" cx="1124" cy="-104" rx="66.03" ry="18"/>
<text text-anchor="middle" x="1124" y="-99.8" font-family="Times,serif" font-size="14.00">SeederService</text>
</g>
<!-- SeederService&#45;&gt;SeederModule -->
<g id="edge44" class="edge">
<title>SeederService&#45;&gt;SeederModule</title>
<path fill="none" stroke="black" d="M1187.8,-109.12C1187.8,-117.92 1187.8,-135 1187.8,-135 1187.8,-135 1551.24,-135 1551.24,-135 1551.24,-135 1551.24,-151.96 1551.24,-151.96"/>
<polygon fill="black" stroke="black" points="1547.74,-151.96 1551.24,-161.96 1554.74,-151.96 1547.74,-151.96"/>
</g>
<!-- OrthancMonitoringTask -->
<g id="node38" class="node">
<title>OrthancMonitoringTask</title>
<ellipse fill="#fdb462" stroke="black" cx="305" cy="-245" rx="104.8" ry="18"/>
<text text-anchor="middle" x="305" y="-240.8" font-family="Times,serif" font-size="14.00">OrthancMonitoringTask</text>
</g>
<!-- OrthancMonitoringTask&#45;&gt;TasksModule -->
<g id="edge49" class="edge">
<title>OrthancMonitoringTask&#45;&gt;TasksModule</title>
<path fill="none" stroke="black" d="M398.24,-236.53C398.24,-226.17 398.24,-210 398.24,-210 398.24,-210 1322.63,-210 1322.63,-210 1322.63,-210 1322.63,-208.14 1322.63,-208.14"/>
<polygon fill="black" stroke="black" points="1326.13,-208.14 1322.63,-198.14 1319.13,-208.14 1326.13,-208.14"/>
</g>
<!-- QueryQueueTask -->
<g id="node39" class="node">
<title>QueryQueueTask</title>
<ellipse fill="#fdb462" stroke="black" cx="103" cy="-245" rx="79.28" ry="18"/>
<text text-anchor="middle" x="103" y="-240.8" font-family="Times,serif" font-size="14.00">QueryQueueTask</text>
</g>
<!-- QueryQueueTask&#45;&gt;TasksModule -->
<g id="edge50" class="edge">
<title>QueryQueueTask&#45;&gt;TasksModule</title>
<path fill="none" stroke="black" d="M127.7,-227.85C127.7,-216.61 127.7,-204 127.7,-204 127.7,-204 1307.26,-204 1307.26,-204 1307.26,-204 1307.26,-203.42 1307.26,-203.42"/>
<polygon fill="black" stroke="black" points="1310.76,-208.19 1307.26,-198.19 1303.76,-208.19 1310.76,-208.19"/>
</g>
</g>
</svg>
