<?xml version="1.0" encoding="UTF-8" standalone="no"?>
<!DOCTYPE svg PUBLIC "-//W3C//DTD SVG 1.1//EN"
 "http://www.w3.org/Graphics/SVG/1.1/DTD/svg11.dtd">
<!-- Generated by graphviz version 2.47.0 (20210316.0004)
 -->
<!-- Title: dependencies Pages: 1 -->
<svg width="1781pt" height="211pt"
 viewBox="0.00 0.00 1781.00 211.00" xmlns="http://www.w3.org/2000/svg" xmlns:xlink="http://www.w3.org/1999/xlink">
<g id="graph0" class="graph" transform="scale(1 1) rotate(0) translate(4 207)">
<title>dependencies</title>
<polygon fill="white" stroke="transparent" points="-4,4 -4,-207 1777,-207 1777,4 -4,4"/>
<text text-anchor="start" x="865.51" y="-42.4" font-family="Times-12" font-weight="bold" font-size="14.00">Legend</text>
<polygon fill="#ffffb3" stroke="transparent" points="652.5,-10 652.5,-30 672.5,-30 672.5,-10 652.5,-10"/>
<text text-anchor="start" x="676.13" y="-15.4" font-family="Times-12" font-size="14.00"> &#160;Declarations</text>
<polygon fill="#8dd3c7" stroke="transparent" points="765.5,-10 765.5,-30 785.5,-30 785.5,-10 765.5,-10"/>
<text text-anchor="start" x="789.23" y="-15.4" font-family="Times-12" font-size="14.00"> &#160;Module</text>
<polygon fill="#80b1d3" stroke="transparent" points="851.5,-10 851.5,-30 871.5,-30 871.5,-10 851.5,-10"/>
<text text-anchor="start" x="875.28" y="-15.4" font-family="Times-12" font-size="14.00"> &#160;Bootstrap</text>
<polygon fill="#fdb462" stroke="transparent" points="948.5,-10 948.5,-30 968.5,-30 968.5,-10 948.5,-10"/>
<text text-anchor="start" x="972.17" y="-15.4" font-family="Times-12" font-size="14.00"> &#160;Providers</text>
<polygon fill="#fb8072" stroke="transparent" points="1044.5,-10 1044.5,-30 1064.5,-30 1064.5,-10 1044.5,-10"/>
<text text-anchor="start" x="1068.23" y="-15.4" font-family="Times-12" font-size="14.00"> &#160;Exports</text>
<g id="clust1" class="cluster">
<title>cluster_AppModule</title>
<polygon fill="none" stroke="black" stroke-dasharray="1,5" points="8,-70 8,-195 1765,-195 1765,-70 8,-70"/>
</g>
<g id="clust6" class="cluster">
<title>cluster_AppModule_providers</title>
<polygon fill="none" stroke="black" points="1589,-78 1589,-130 1757,-130 1757,-78 1589,-78"/>
</g>
<g id="clust3" class="cluster">
<title>cluster_AppModule_imports</title>
<polygon fill="none" stroke="black" points="16,-78 16,-130 1581,-130 1581,-78 16,-78"/>
</g>
<!-- AuthModule -->
<g id="node1" class="node">
<title>AuthModule</title>
<polygon fill="#8dd3c7" stroke="black" points="1572.55,-122 1569.55,-126 1548.55,-126 1545.55,-122 1485.45,-122 1485.45,-86 1572.55,-86 1572.55,-122"/>
<text text-anchor="middle" x="1529" y="-99.8" font-family="Times,serif" font-size="14.00">AuthModule</text>
</g>
<!-- AppModule -->
<g id="node14" class="node">
<title>AppModule</title>
<polygon fill="#8dd3c7" stroke="black" points="876.66,-187 873.66,-191 852.66,-191 849.66,-187 793.34,-187 793.34,-151 876.66,-151 876.66,-187"/>
<text text-anchor="middle" x="835" y="-164.8" font-family="Times,serif" font-size="14.00">AppModule</text>
</g>
<!-- AuthModule&#45;&gt;AppModule -->
<g id="edge1" class="edge">
<title>AuthModule&#45;&gt;AppModule</title>
<path fill="none" stroke="black" d="M1529,-122.04C1529,-143.66 1529,-177 1529,-177 1529,-177 886.85,-177 886.85,-177"/>
<polygon fill="black" stroke="black" points="886.85,-173.5 876.85,-177 886.85,-180.5 886.85,-173.5"/>
</g>
<!-- AutoroutingsModule -->
<g id="node2" class="node">
<title>AutoroutingsModule</title>
<polygon fill="#8dd3c7" stroke="black" points="1467.93,-122 1464.93,-126 1443.93,-126 1440.93,-122 1334.07,-122 1334.07,-86 1467.93,-86 1467.93,-122"/>
<text text-anchor="middle" x="1401" y="-99.8" font-family="Times,serif" font-size="14.00">AutoroutingsModule</text>
</g>
<!-- AutoroutingsModule&#45;&gt;AppModule -->
<g id="edge2" class="edge">
<title>AutoroutingsModule&#45;&gt;AppModule</title>
<path fill="none" stroke="black" d="M1401,-122.22C1401,-142.37 1401,-172 1401,-172 1401,-172 887.08,-172 887.08,-172"/>
<polygon fill="black" stroke="black" points="887.08,-168.5 877.08,-172 887.08,-175.5 887.08,-168.5"/>
</g>
<!-- LabelsModule -->
<g id="node3" class="node">
<title>LabelsModule</title>
<polygon fill="#8dd3c7" stroke="black" points="1316.37,-122 1313.37,-126 1292.37,-126 1289.37,-122 1219.63,-122 1219.63,-86 1316.37,-86 1316.37,-122"/>
<text text-anchor="middle" x="1268" y="-99.8" font-family="Times,serif" font-size="14.00">LabelsModule</text>
</g>
<!-- LabelsModule&#45;&gt;AppModule -->
<g id="edge3" class="edge">
<title>LabelsModule&#45;&gt;AppModule</title>
<path fill="none" stroke="black" d="M1268,-122.22C1268,-140.83 1268,-167 1268,-167 1268,-167 886.91,-167 886.91,-167"/>
<polygon fill="black" stroke="black" points="886.91,-163.5 876.91,-167 886.91,-170.5 886.91,-163.5"/>
</g>
<!-- MailModule -->
<g id="node4" class="node">
<title>MailModule</title>
<polygon fill="#8dd3c7" stroke="black" points="1201.99,-122 1198.99,-126 1177.99,-126 1174.99,-122 1116.01,-122 1116.01,-86 1201.99,-86 1201.99,-122"/>
<text text-anchor="middle" x="1159" y="-99.8" font-family="Times,serif" font-size="14.00">MailModule</text>
</g>
<!-- MailModule&#45;&gt;AppModule -->
<g id="edge4" class="edge">
<title>MailModule&#45;&gt;AppModule</title>
<path fill="none" stroke="black" d="M1159,-122.03C1159,-139.06 1159,-162 1159,-162 1159,-162 886.69,-162 886.69,-162"/>
<polygon fill="black" stroke="black" points="886.69,-158.5 876.69,-162 886.69,-165.5 886.69,-158.5"/>
</g>
<!-- OauthConfigModule -->
<g id="node5" class="node">
<title>OauthConfigModule</title>
<polygon fill="#8dd3c7" stroke="black" points="1098.15,-122 1095.15,-126 1074.15,-126 1071.15,-122 965.85,-122 965.85,-86 1098.15,-86 1098.15,-122"/>
<text text-anchor="middle" x="1032" y="-99.8" font-family="Times,serif" font-size="14.00">OauthConfigModule</text>
</g>
<!-- OauthConfigModule&#45;&gt;AppModule -->
<g id="edge5" class="edge">
<title>OauthConfigModule&#45;&gt;AppModule</title>
<path fill="none" stroke="black" d="M1032,-122.24C1032,-137.57 1032,-157 1032,-157 1032,-157 886.78,-157 886.78,-157"/>
<polygon fill="black" stroke="black" points="886.78,-153.5 876.78,-157 886.78,-160.5 886.78,-153.5"/>
</g>
<!-- OptionsModule -->
<g id="node6" class="node">
<title>OptionsModule</title>
<polygon fill="#8dd3c7" stroke="black" points="947.88,-122 944.88,-126 923.88,-126 920.88,-122 844.12,-122 844.12,-86 947.88,-86 947.88,-122"/>
<text text-anchor="middle" x="896" y="-99.8" font-family="Times,serif" font-size="14.00">OptionsModule</text>
</g>
<!-- OptionsModule&#45;&gt;AppModule -->
<g id="edge6" class="edge">
<title>OptionsModule&#45;&gt;AppModule</title>
<path fill="none" stroke="black" d="M860.44,-122.11C860.44,-122.11 860.44,-140.99 860.44,-140.99"/>
<polygon fill="black" stroke="black" points="856.94,-140.99 860.44,-150.99 863.94,-140.99 856.94,-140.99"/>
</g>
<!-- OrthancModule -->
<g id="node7" class="node">
<title>OrthancModule</title>
<polygon fill="#8dd3c7" stroke="black" points="826.14,-122 823.14,-126 802.14,-126 799.14,-122 721.86,-122 721.86,-86 826.14,-86 826.14,-122"/>
<text text-anchor="middle" x="774" y="-99.8" font-family="Times,serif" font-size="14.00">OrthancModule</text>
</g>
<!-- OrthancModule&#45;&gt;AppModule -->
<g id="edge7" class="edge">
<title>OrthancModule&#45;&gt;AppModule</title>
<path fill="none" stroke="black" d="M809.75,-122.11C809.75,-122.11 809.75,-140.99 809.75,-140.99"/>
<polygon fill="black" stroke="black" points="806.25,-140.99 809.75,-150.99 813.25,-140.99 806.25,-140.99"/>
</g>
<!-- ProcessingModule -->
<g id="node8" class="node">
<title>ProcessingModule</title>
<polygon fill="#8dd3c7" stroke="black" points="704.2,-122 701.2,-126 680.2,-126 677.2,-122 583.8,-122 583.8,-86 704.2,-86 704.2,-122"/>
<text text-anchor="middle" x="644" y="-99.8" font-family="Times,serif" font-size="14.00">ProcessingModule</text>
</g>
<!-- ProcessingModule&#45;&gt;AppModule -->
<g id="edge8" class="edge">
<title>ProcessingModule&#45;&gt;AppModule</title>
<path fill="none" stroke="black" d="M644,-122.24C644,-137.57 644,-157 644,-157 644,-157 783.08,-157 783.08,-157"/>
<polygon fill="black" stroke="black" points="783.08,-160.5 793.08,-157 783.08,-153.5 783.08,-160.5"/>
</g>
<!-- QueueModule -->
<g id="node9" class="node">
<title>QueueModule</title>
<polygon fill="#8dd3c7" stroke="black" points="566.09,-122 563.09,-126 542.09,-126 539.09,-122 469.91,-122 469.91,-86 566.09,-86 566.09,-122"/>
<text text-anchor="middle" x="518" y="-99.8" font-family="Times,serif" font-size="14.00">QueueModule</text>
</g>
<!-- QueueModule&#45;&gt;AppModule -->
<g id="edge9" class="edge">
<title>QueueModule&#45;&gt;AppModule</title>
<path fill="none" stroke="black" d="M518,-122.03C518,-139.06 518,-162 518,-162 518,-162 783.23,-162 783.23,-162"/>
<polygon fill="black" stroke="black" points="783.23,-165.5 793.23,-162 783.23,-158.5 783.23,-165.5"/>
</g>
<!-- RolesModule -->
<g id="node10" class="node">
<title>RolesModule</title>
<polygon fill="#8dd3c7" stroke="black" points="451.94,-122 448.94,-126 427.94,-126 424.94,-122 360.06,-122 360.06,-86 451.94,-86 451.94,-122"/>
<text text-anchor="middle" x="406" y="-99.8" font-family="Times,serif" font-size="14.00">RolesModule</text>
</g>
<!-- RolesModule&#45;&gt;AppModule -->
<g id="edge10" class="edge">
<title>RolesModule&#45;&gt;AppModule</title>
<path fill="none" stroke="black" d="M406,-122.22C406,-140.83 406,-167 406,-167 406,-167 783.08,-167 783.08,-167"/>
<polygon fill="black" stroke="black" points="783.08,-170.5 793.08,-167 783.08,-163.5 783.08,-170.5"/>
</g>
<!-- SeederModule -->
<g id="node11" class="node">
<title>SeederModule</title>
<polygon fill="#8dd3c7" stroke="black" points="341.64,-122 338.64,-126 317.64,-126 314.64,-122 244.36,-122 244.36,-86 341.64,-86 341.64,-122"/>
<text text-anchor="middle" x="293" y="-99.8" font-family="Times,serif" font-size="14.00">SeederModule</text>
</g>
<!-- SeederModule&#45;&gt;AppModule -->
<g id="edge11" class="edge">
<title>SeederModule&#45;&gt;AppModule</title>
<path fill="none" stroke="black" d="M293,-122.22C293,-142.37 293,-172 293,-172 293,-172 782.92,-172 782.92,-172"/>
<polygon fill="black" stroke="black" points="782.92,-175.5 792.92,-172 782.92,-168.5 782.92,-175.5"/>
</g>
<!-- TasksModule -->
<g id="node12" class="node">
<title>TasksModule</title>
<polygon fill="#8dd3c7" stroke="black" points="226.21,-122 223.21,-126 202.21,-126 199.21,-122 133.79,-122 133.79,-86 226.21,-86 226.21,-122"/>
<text text-anchor="middle" x="180" y="-99.8" font-family="Times,serif" font-size="14.00">TasksModule</text>
</g>
<!-- TasksModule&#45;&gt;AppModule -->
<g id="edge12" class="edge">
<title>TasksModule&#45;&gt;AppModule</title>
<path fill="none" stroke="black" d="M180,-122.04C180,-143.66 180,-177 180,-177 180,-177 783.03,-177 783.03,-177"/>
<polygon fill="black" stroke="black" points="783.03,-180.5 793.03,-177 783.03,-173.5 783.03,-180.5"/>
</g>
<!-- UsersModule -->
<g id="node13" class="node">
<title>UsersModule</title>
<polygon fill="#8dd3c7" stroke="black" points="115.92,-122 112.92,-126 91.92,-126 88.92,-122 24.08,-122 24.08,-86 115.92,-86 115.92,-122"/>
<text text-anchor="middle" x="70" y="-99.8" font-family="Times,serif" font-size="14.00">UsersModule</text>
</g>
<!-- UsersModule&#45;&gt;AppModule -->
<g id="edge13" class="edge">
<title>UsersModule&#45;&gt;AppModule</title>
<path fill="none" stroke="black" d="M70,-122.09C70,-145.13 70,-182 70,-182 70,-182 783.33,-182 783.33,-182"/>
<polygon fill="black" stroke="black" points="783.33,-185.5 793.33,-182 783.33,-178.5 783.33,-185.5"/>
</g>
<!-- ProcessingClient -->
<g id="node15" class="node">
<title>ProcessingClient</title>
<ellipse fill="#fdb462" stroke="black" cx="1673" cy="-104" rx="76.46" ry="18"/>
<text text-anchor="middle" x="1673" y="-99.8" font-family="Times,serif" font-size="14.00">ProcessingClient</text>
</g>
<!-- ProcessingClient&#45;&gt;AppModule -->
<g id="edge14" class="edge">
<title>ProcessingClient&#45;&gt;AppModule</title>
<path fill="none" stroke="black" d="M1673,-122.09C1673,-145.13 1673,-182 1673,-182 1673,-182 886.84,-182 886.84,-182"/>
<polygon fill="black" stroke="black" points="886.84,-178.5 876.84,-182 886.84,-185.5 886.84,-178.5"/>
</g>
</g>
</svg>
