<?xml version="1.0" encoding="UTF-8" standalone="no"?>
<!DOCTYPE svg PUBLIC "-//W3C//DTD SVG 1.1//EN"
 "http://www.w3.org/Graphics/SVG/1.1/DTD/svg11.dtd">
<!-- Generated by graphviz version 2.47.0 (20210316.0004)
 -->
<!-- Title: dependencies Pages: 1 -->
<svg width="1899pt" height="211pt"
 viewBox="0.00 0.00 1899.00 211.00" xmlns="http://www.w3.org/2000/svg" xmlns:xlink="http://www.w3.org/1999/xlink">
<g id="graph0" class="graph" transform="scale(1 1) rotate(0) translate(4 207)">
<title>dependencies</title>
<polygon fill="white" stroke="transparent" points="-4,4 -4,-207 1895,-207 1895,4 -4,4"/>
<text text-anchor="start" x="924.51" y="-42.4" font-family="Times-12" font-weight="bold" font-size="14.00">Legend</text>
<polygon fill="#ffffb3" stroke="transparent" points="711.5,-10 711.5,-30 731.5,-30 731.5,-10 711.5,-10"/>
<text text-anchor="start" x="735.13" y="-15.4" font-family="Times-12" font-size="14.00"> &#160;Declarations</text>
<polygon fill="#8dd3c7" stroke="transparent" points="824.5,-10 824.5,-30 844.5,-30 844.5,-10 824.5,-10"/>
<text text-anchor="start" x="848.23" y="-15.4" font-family="Times-12" font-size="14.00"> &#160;Module</text>
<polygon fill="#80b1d3" stroke="transparent" points="910.5,-10 910.5,-30 930.5,-30 930.5,-10 910.5,-10"/>
<text text-anchor="start" x="934.28" y="-15.4" font-family="Times-12" font-size="14.00"> &#160;Bootstrap</text>
<polygon fill="#fdb462" stroke="transparent" points="1007.5,-10 1007.5,-30 1027.5,-30 1027.5,-10 1007.5,-10"/>
<text text-anchor="start" x="1031.17" y="-15.4" font-family="Times-12" font-size="14.00"> &#160;Providers</text>
<polygon fill="#fb8072" stroke="transparent" points="1103.5,-10 1103.5,-30 1123.5,-30 1123.5,-10 1103.5,-10"/>
<text text-anchor="start" x="1127.23" y="-15.4" font-family="Times-12" font-size="14.00"> &#160;Exports</text>
<g id="clust1" class="cluster">
<title>cluster_AppModule</title>
<polygon fill="none" stroke="black" stroke-dasharray="1,5" points="8,-70 8,-195 1883,-195 1883,-70 8,-70"/>
</g>
<g id="clust6" class="cluster">
<title>cluster_AppModule_providers</title>
<polygon fill="none" stroke="black" points="1707,-78 1707,-130 1875,-130 1875,-78 1707,-78"/>
</g>
<g id="clust3" class="cluster">
<title>cluster_AppModule_imports</title>
<polygon fill="none" stroke="black" points="16,-78 16,-130 1699,-130 1699,-78 16,-78"/>
</g>
<!-- AuthModule -->
<g id="node1" class="node">
<title>AuthModule</title>
<polygon fill="#8dd3c7" stroke="black" points="1690.55,-122 1687.55,-126 1666.55,-126 1663.55,-122 1603.45,-122 1603.45,-86 1690.55,-86 1690.55,-122"/>
<text text-anchor="middle" x="1647" y="-99.8" font-family="Times,serif" font-size="14.00">AuthModule</text>
</g>
<!-- AppModule -->
<g id="node15" class="node">
<title>AppModule</title>
<polygon fill="#8dd3c7" stroke="black" points="937.66,-187 934.66,-191 913.66,-191 910.66,-187 854.34,-187 854.34,-151 937.66,-151 937.66,-187"/>
<text text-anchor="middle" x="896" y="-164.8" font-family="Times,serif" font-size="14.00">AppModule</text>
</g>
<!-- AuthModule&#45;&gt;AppModule -->
<g id="edge1" class="edge">
<title>AuthModule&#45;&gt;AppModule</title>
<path fill="none" stroke="black" d="M1647,-122.29C1647,-144.21 1647,-178 1647,-178 1647,-178 947.72,-178 947.72,-178"/>
<polygon fill="black" stroke="black" points="947.72,-174.5 937.72,-178 947.72,-181.5 947.72,-174.5"/>
</g>
<!-- AutoroutingsModule -->
<g id="node2" class="node">
<title>AutoroutingsModule</title>
<polygon fill="#8dd3c7" stroke="black" points="1585.93,-122 1582.93,-126 1561.93,-126 1558.93,-122 1452.07,-122 1452.07,-86 1585.93,-86 1585.93,-122"/>
<text text-anchor="middle" x="1519" y="-99.8" font-family="Times,serif" font-size="14.00">AutoroutingsModule</text>
</g>
<!-- AutoroutingsModule&#45;&gt;AppModule -->
<g id="edge2" class="edge">
<title>AutoroutingsModule&#45;&gt;AppModule</title>
<path fill="none" stroke="black" d="M1519,-122.03C1519,-142.77 1519,-174 1519,-174 1519,-174 947.84,-174 947.84,-174"/>
<polygon fill="black" stroke="black" points="947.84,-170.5 937.84,-174 947.84,-177.5 947.84,-170.5"/>
</g>
<!-- GuardsModule -->
<g id="node3" class="node">
<title>GuardsModule</title>
<polygon fill="#8dd3c7" stroke="black" points="1433.98,-122 1430.98,-126 1409.98,-126 1406.98,-122 1334.02,-122 1334.02,-86 1433.98,-86 1433.98,-122"/>
<text text-anchor="middle" x="1384" y="-99.8" font-family="Times,serif" font-size="14.00">GuardsModule</text>
</g>
<!-- GuardsModule&#45;&gt;AppModule -->
<g id="edge3" class="edge">
<title>GuardsModule&#45;&gt;AppModule</title>
<path fill="none" stroke="black" d="M1384,-122.11C1384,-141.34 1384,-169 1384,-169 1384,-169 948.03,-169 948.03,-169"/>
<polygon fill="black" stroke="black" points="948.03,-165.5 938.03,-169 948.03,-172.5 948.03,-165.5"/>
</g>
<!-- LabelsModule -->
<g id="node4" class="node">
<title>LabelsModule</title>
<polygon fill="#8dd3c7" stroke="black" points="1316.37,-122 1313.37,-126 1292.37,-126 1289.37,-122 1219.63,-122 1219.63,-86 1316.37,-86 1316.37,-122"/>
<text text-anchor="middle" x="1268" y="-99.8" font-family="Times,serif" font-size="14.00">LabelsModule</text>
</g>
<!-- LabelsModule&#45;&gt;AppModule -->
<g id="edge4" class="edge">
<title>LabelsModule&#45;&gt;AppModule</title>
<path fill="none" stroke="black" d="M1268,-122.3C1268,-140.27 1268,-165 1268,-165 1268,-165 947.95,-165 947.95,-165"/>
<polygon fill="black" stroke="black" points="947.95,-161.5 937.95,-165 947.95,-168.5 947.95,-161.5"/>
</g>
<!-- MailModule -->
<g id="node5" class="node">
<title>MailModule</title>
<polygon fill="#8dd3c7" stroke="black" points="1201.99,-122 1198.99,-126 1177.99,-126 1174.99,-122 1116.01,-122 1116.01,-86 1201.99,-86 1201.99,-122"/>
<text text-anchor="middle" x="1159" y="-99.8" font-family="Times,serif" font-size="14.00">MailModule</text>
</g>
<!-- MailModule&#45;&gt;AppModule -->
<g id="edge5" class="edge">
<title>MailModule&#45;&gt;AppModule</title>
<path fill="none" stroke="black" d="M1159,-122.03C1159,-138.4 1159,-160 1159,-160 1159,-160 947.67,-160 947.67,-160"/>
<polygon fill="black" stroke="black" points="947.67,-156.5 937.67,-160 947.67,-163.5 947.67,-156.5"/>
</g>
<!-- OauthConfigModule -->
<g id="node6" class="node">
<title>OauthConfigModule</title>
<polygon fill="#8dd3c7" stroke="black" points="1098.15,-122 1095.15,-126 1074.15,-126 1071.15,-122 965.85,-122 965.85,-86 1098.15,-86 1098.15,-122"/>
<text text-anchor="middle" x="1032" y="-99.8" font-family="Times,serif" font-size="14.00">OauthConfigModule</text>
</g>
<!-- OauthConfigModule&#45;&gt;AppModule -->
<g id="edge6" class="edge">
<title>OauthConfigModule&#45;&gt;AppModule</title>
<path fill="none" stroke="black" d="M1032,-122.19C1032,-137.18 1032,-156 1032,-156 1032,-156 947.91,-156 947.91,-156"/>
<polygon fill="black" stroke="black" points="947.91,-152.5 937.91,-156 947.91,-159.5 947.91,-152.5"/>
</g>
<!-- OptionsModule -->
<g id="node7" class="node">
<title>OptionsModule</title>
<polygon fill="#8dd3c7" stroke="black" points="947.88,-122 944.88,-126 923.88,-126 920.88,-122 844.12,-122 844.12,-86 947.88,-86 947.88,-122"/>
<text text-anchor="middle" x="896" y="-99.8" font-family="Times,serif" font-size="14.00">OptionsModule</text>
</g>
<!-- OptionsModule&#45;&gt;AppModule -->
<g id="edge7" class="edge">
<title>OptionsModule&#45;&gt;AppModule</title>
<path fill="none" stroke="black" d="M896,-122.11C896,-122.11 896,-140.99 896,-140.99"/>
<polygon fill="black" stroke="black" points="892.5,-140.99 896,-150.99 899.5,-140.99 892.5,-140.99"/>
</g>
<!-- OrthancModule -->
<g id="node8" class="node">
<title>OrthancModule</title>
<polygon fill="#8dd3c7" stroke="black" points="826.14,-122 823.14,-126 802.14,-126 799.14,-122 721.86,-122 721.86,-86 826.14,-86 826.14,-122"/>
<text text-anchor="middle" x="774" y="-99.8" font-family="Times,serif" font-size="14.00">OrthancModule</text>
</g>
<!-- OrthancModule&#45;&gt;AppModule -->
<g id="edge8" class="edge">
<title>OrthancModule&#45;&gt;AppModule</title>
<path fill="none" stroke="black" d="M774,-122.19C774,-137.18 774,-156 774,-156 774,-156 844.01,-156 844.01,-156"/>
<polygon fill="black" stroke="black" points="844.01,-159.5 854.01,-156 844.01,-152.5 844.01,-159.5"/>
</g>
<!-- ProcessingModule -->
<g id="node9" class="node">
<title>ProcessingModule</title>
<polygon fill="#8dd3c7" stroke="black" points="704.2,-122 701.2,-126 680.2,-126 677.2,-122 583.8,-122 583.8,-86 704.2,-86 704.2,-122"/>
<text text-anchor="middle" x="644" y="-99.8" font-family="Times,serif" font-size="14.00">ProcessingModule</text>
</g>
<!-- ProcessingModule&#45;&gt;AppModule -->
<g id="edge9" class="edge">
<title>ProcessingModule&#45;&gt;AppModule</title>
<path fill="none" stroke="black" d="M644,-122.03C644,-138.4 644,-160 644,-160 644,-160 844.1,-160 844.1,-160"/>
<polygon fill="black" stroke="black" points="844.1,-163.5 854.1,-160 844.1,-156.5 844.1,-163.5"/>
</g>
<!-- QueueModule -->
<g id="node10" class="node">
<title>QueueModule</title>
<polygon fill="#8dd3c7" stroke="black" points="566.09,-122 563.09,-126 542.09,-126 539.09,-122 469.91,-122 469.91,-86 566.09,-86 566.09,-122"/>
<text text-anchor="middle" x="518" y="-99.8" font-family="Times,serif" font-size="14.00">QueueModule</text>
</g>
<!-- QueueModule&#45;&gt;AppModule -->
<g id="edge10" class="edge">
<title>QueueModule&#45;&gt;AppModule</title>
<path fill="none" stroke="black" d="M518,-122.3C518,-140.27 518,-165 518,-165 518,-165 844.1,-165 844.1,-165"/>
<polygon fill="black" stroke="black" points="844.1,-168.5 854.1,-165 844.1,-161.5 844.1,-168.5"/>
</g>
<!-- RolesModule -->
<g id="node11" class="node">
<title>RolesModule</title>
<polygon fill="#8dd3c7" stroke="black" points="451.94,-122 448.94,-126 427.94,-126 424.94,-122 360.06,-122 360.06,-86 451.94,-86 451.94,-122"/>
<text text-anchor="middle" x="406" y="-99.8" font-family="Times,serif" font-size="14.00">RolesModule</text>
</g>
<!-- RolesModule&#45;&gt;AppModule -->
<g id="edge11" class="edge">
<title>RolesModule&#45;&gt;AppModule</title>
<path fill="none" stroke="black" d="M406,-122.11C406,-141.34 406,-169 406,-169 406,-169 844.22,-169 844.22,-169"/>
<polygon fill="black" stroke="black" points="844.22,-172.5 854.22,-169 844.22,-165.5 844.22,-172.5"/>
</g>
<!-- SeederModule -->
<g id="node12" class="node">
<title>SeederModule</title>
<polygon fill="#8dd3c7" stroke="black" points="341.64,-122 338.64,-126 317.64,-126 314.64,-122 244.36,-122 244.36,-86 341.64,-86 341.64,-122"/>
<text text-anchor="middle" x="293" y="-99.8" font-family="Times,serif" font-size="14.00">SeederModule</text>
</g>
<!-- SeederModule&#45;&gt;AppModule -->
<g id="edge12" class="edge">
<title>SeederModule&#45;&gt;AppModule</title>
<path fill="none" stroke="black" d="M293,-122.03C293,-142.77 293,-174 293,-174 293,-174 844.08,-174 844.08,-174"/>
<polygon fill="black" stroke="black" points="844.08,-177.5 854.08,-174 844.08,-170.5 844.08,-177.5"/>
</g>
<!-- TasksModule -->
<g id="node13" class="node">
<title>TasksModule</title>
<polygon fill="#8dd3c7" stroke="black" points="226.21,-122 223.21,-126 202.21,-126 199.21,-122 133.79,-122 133.79,-86 226.21,-86 226.21,-122"/>
<text text-anchor="middle" x="180" y="-99.8" font-family="Times,serif" font-size="14.00">TasksModule</text>
</g>
<!-- TasksModule&#45;&gt;AppModule -->
<g id="edge13" class="edge">
<title>TasksModule&#45;&gt;AppModule</title>
<path fill="none" stroke="black" d="M180,-122.29C180,-144.21 180,-178 180,-178 180,-178 844.15,-178 844.15,-178"/>
<polygon fill="black" stroke="black" points="844.15,-181.5 854.15,-178 844.15,-174.5 844.15,-181.5"/>
</g>
<!-- UsersModule -->
<g id="node14" class="node">
<title>UsersModule</title>
<polygon fill="#8dd3c7" stroke="black" points="115.92,-122 112.92,-126 91.92,-126 88.92,-122 24.08,-122 24.08,-86 115.92,-86 115.92,-122"/>
<text text-anchor="middle" x="70" y="-99.8" font-family="Times,serif" font-size="14.00">UsersModule</text>
</g>
<!-- UsersModule&#45;&gt;AppModule -->
<g id="edge14" class="edge">
<title>UsersModule&#45;&gt;AppModule</title>
<path fill="none" stroke="black" d="M70,-122.32C70,-145.66 70,-183 70,-183 70,-183 844.19,-183 844.19,-183"/>
<polygon fill="black" stroke="black" points="844.19,-186.5 854.19,-183 844.19,-179.5 844.19,-186.5"/>
</g>
<!-- ProcessingClient -->
<g id="node16" class="node">
<title>ProcessingClient</title>
<ellipse fill="#fdb462" stroke="black" cx="1791" cy="-104" rx="76.46" ry="18"/>
<text text-anchor="middle" x="1791" y="-99.8" font-family="Times,serif" font-size="14.00">ProcessingClient</text>
</g>
<!-- ProcessingClient&#45;&gt;AppModule -->
<g id="edge15" class="edge">
<title>ProcessingClient&#45;&gt;AppModule</title>
<path fill="none" stroke="black" d="M1791,-122.32C1791,-145.66 1791,-183 1791,-183 1791,-183 947.67,-183 947.67,-183"/>
<polygon fill="black" stroke="black" points="947.67,-179.5 937.67,-183 947.67,-186.5 947.67,-179.5"/>
</g>
</g>
</svg>
