<?xml version="1.0" encoding="UTF-8" standalone="no"?>
<!DOCTYPE svg PUBLIC "-//W3C//DTD SVG 1.1//EN"
 "http://www.w3.org/Graphics/SVG/1.1/DTD/svg11.dtd">
<!-- Generated by graphviz version 2.47.0 (20210316.0004)
 -->
<!-- Title: dependencies Pages: 1 -->
<svg width="1781pt" height="211pt"
 viewBox="0.00 0.00 1781.00 211.00" xmlns="http://www.w3.org/2000/svg" xmlns:xlink="http://www.w3.org/1999/xlink">
<g id="graph0" class="graph" transform="scale(1 1) rotate(0) translate(4 207)">
<title>dependencies</title>
<polygon fill="white" stroke="transparent" points="-4,4 -4,-207 1777,-207 1777,4 -4,4"/>
<text text-anchor="start" x="865.51" y="-42.4" font-family="Times-12" font-weight="bold" font-size="14.00">Legend</text>
<polygon fill="#ffffb3" stroke="transparent" points="652.5,-10 652.5,-30 672.5,-30 672.5,-10 652.5,-10"/>
<text text-anchor="start" x="676.13" y="-15.4" font-family="Times-12" font-size="14.00"> &#160;Declarations</text>
<polygon fill="#8dd3c7" stroke="transparent" points="765.5,-10 765.5,-30 785.5,-30 785.5,-10 765.5,-10"/>
<text text-anchor="start" x="789.23" y="-15.4" font-family="Times-12" font-size="14.00"> &#160;Module</text>
<polygon fill="#80b1d3" stroke="transparent" points="851.5,-10 851.5,-30 871.5,-30 871.5,-10 851.5,-10"/>
<text text-anchor="start" x="875.28" y="-15.4" font-family="Times-12" font-size="14.00"> &#160;Bootstrap</text>
<polygon fill="#fdb462" stroke="transparent" points="948.5,-10 948.5,-30 968.5,-30 968.5,-10 948.5,-10"/>
<text text-anchor="start" x="972.17" y="-15.4" font-family="Times-12" font-size="14.00"> &#160;Providers</text>
<polygon fill="#fb8072" stroke="transparent" points="1044.5,-10 1044.5,-30 1064.5,-30 1064.5,-10 1044.5,-10"/>
<text text-anchor="start" x="1068.23" y="-15.4" font-family="Times-12" font-size="14.00"> &#160;Exports</text>
<g id="clust1" class="cluster">
<title>cluster_AppModule</title>
<polygon fill="none" stroke="black" stroke-dasharray="1,5" points="8,-70 8,-195 1765,-195 1765,-70 8,-70"/>
</g>
<g id="clust3" class="cluster">
<title>cluster_AppModule_imports</title>
<polygon fill="none" stroke="black" points="192,-78 192,-130 1757,-130 1757,-78 192,-78"/>
</g>
<g id="clust6" class="cluster">
<title>cluster_AppModule_providers</title>
<polygon fill="none" stroke="black" points="16,-78 16,-130 184,-130 184,-78 16,-78"/>
</g>
<!-- AuthModule -->
<g id="node1" class="node">
<title>AuthModule</title>
<polygon fill="#8dd3c7" stroke="black" points="1748.55,-122 1745.55,-126 1724.55,-126 1721.55,-122 1661.45,-122 1661.45,-86 1748.55,-86 1748.55,-122"/>
<text text-anchor="middle" x="1705" y="-99.8" font-family="Times,serif" font-size="14.00">AuthModule</text>
</g>
<!-- AppModule -->
<g id="node14" class="node">
<title>AppModule</title>
<polygon fill="#8dd3c7" stroke="black" points="926.66,-187 923.66,-191 902.66,-191 899.66,-187 843.34,-187 843.34,-151 926.66,-151 926.66,-187"/>
<text text-anchor="middle" x="885" y="-164.8" font-family="Times,serif" font-size="14.00">AppModule</text>
</g>
<!-- AuthModule&#45;&gt;AppModule -->
<g id="edge1" class="edge">
<title>AuthModule&#45;&gt;AppModule</title>
<path fill="none" stroke="black" d="M1705,-122.09C1705,-145.13 1705,-182 1705,-182 1705,-182 936.79,-182 936.79,-182"/>
<polygon fill="black" stroke="black" points="936.79,-178.5 926.79,-182 936.79,-185.5 936.79,-178.5"/>
</g>
<!-- AutoroutingsModule -->
<g id="node2" class="node">
<title>AutoroutingsModule</title>
<polygon fill="#8dd3c7" stroke="black" points="1643.93,-122 1640.93,-126 1619.93,-126 1616.93,-122 1510.07,-122 1510.07,-86 1643.93,-86 1643.93,-122"/>
<text text-anchor="middle" x="1577" y="-99.8" font-family="Times,serif" font-size="14.00">AutoroutingsModule</text>
</g>
<!-- AutoroutingsModule&#45;&gt;AppModule -->
<g id="edge2" class="edge">
<title>AutoroutingsModule&#45;&gt;AppModule</title>
<path fill="none" stroke="black" d="M1577,-122.04C1577,-143.66 1577,-177 1577,-177 1577,-177 936.73,-177 936.73,-177"/>
<polygon fill="black" stroke="black" points="936.73,-173.5 926.73,-177 936.73,-180.5 936.73,-173.5"/>
</g>
<!-- LabelsModule -->
<g id="node3" class="node">
<title>LabelsModule</title>
<polygon fill="#8dd3c7" stroke="black" points="1492.37,-122 1489.37,-126 1468.37,-126 1465.37,-122 1395.63,-122 1395.63,-86 1492.37,-86 1492.37,-122"/>
<text text-anchor="middle" x="1444" y="-99.8" font-family="Times,serif" font-size="14.00">LabelsModule</text>
</g>
<!-- LabelsModule&#45;&gt;AppModule -->
<g id="edge3" class="edge">
<title>LabelsModule&#45;&gt;AppModule</title>
<path fill="none" stroke="black" d="M1444,-122.22C1444,-142.37 1444,-172 1444,-172 1444,-172 937.02,-172 937.02,-172"/>
<polygon fill="black" stroke="black" points="937.02,-168.5 927.02,-172 937.02,-175.5 937.02,-168.5"/>
</g>
<!-- MailModule -->
<g id="node4" class="node">
<title>MailModule</title>
<polygon fill="#8dd3c7" stroke="black" points="1377.99,-122 1374.99,-126 1353.99,-126 1350.99,-122 1292.01,-122 1292.01,-86 1377.99,-86 1377.99,-122"/>
<text text-anchor="middle" x="1335" y="-99.8" font-family="Times,serif" font-size="14.00">MailModule</text>
</g>
<!-- MailModule&#45;&gt;AppModule -->
<g id="edge4" class="edge">
<title>MailModule&#45;&gt;AppModule</title>
<path fill="none" stroke="black" d="M1335,-122.22C1335,-140.83 1335,-167 1335,-167 1335,-167 936.93,-167 936.93,-167"/>
<polygon fill="black" stroke="black" points="936.93,-163.5 926.93,-167 936.93,-170.5 936.93,-163.5"/>
</g>
<!-- OauthConfigModule -->
<g id="node5" class="node">
<title>OauthConfigModule</title>
<polygon fill="#8dd3c7" stroke="black" points="1274.15,-122 1271.15,-126 1250.15,-126 1247.15,-122 1141.85,-122 1141.85,-86 1274.15,-86 1274.15,-122"/>
<text text-anchor="middle" x="1208" y="-99.8" font-family="Times,serif" font-size="14.00">OauthConfigModule</text>
</g>
<!-- OauthConfigModule&#45;&gt;AppModule -->
<g id="edge5" class="edge">
<title>OauthConfigModule&#45;&gt;AppModule</title>
<path fill="none" stroke="black" d="M1208,-122.03C1208,-139.06 1208,-162 1208,-162 1208,-162 936.9,-162 936.9,-162"/>
<polygon fill="black" stroke="black" points="936.9,-158.5 926.9,-162 936.9,-165.5 936.9,-158.5"/>
</g>
<!-- OptionsModule -->
<g id="node6" class="node">
<title>OptionsModule</title>
<polygon fill="#8dd3c7" stroke="black" points="1123.88,-122 1120.88,-126 1099.88,-126 1096.88,-122 1020.12,-122 1020.12,-86 1123.88,-86 1123.88,-122"/>
<text text-anchor="middle" x="1072" y="-99.8" font-family="Times,serif" font-size="14.00">OptionsModule</text>
</g>
<!-- OptionsModule&#45;&gt;AppModule -->
<g id="edge6" class="edge">
<title>OptionsModule&#45;&gt;AppModule</title>
<path fill="none" stroke="black" d="M1072,-122.24C1072,-137.57 1072,-157 1072,-157 1072,-157 936.97,-157 936.97,-157"/>
<polygon fill="black" stroke="black" points="936.97,-153.5 926.97,-157 936.97,-160.5 936.97,-153.5"/>
</g>
<!-- OrthancModule -->
<g id="node7" class="node">
<title>OrthancModule</title>
<polygon fill="#8dd3c7" stroke="black" points="1002.14,-122 999.14,-126 978.14,-126 975.14,-122 897.86,-122 897.86,-86 1002.14,-86 1002.14,-122"/>
<text text-anchor="middle" x="950" y="-99.8" font-family="Times,serif" font-size="14.00">OrthancModule</text>
</g>
<!-- OrthancModule&#45;&gt;AppModule -->
<g id="edge7" class="edge">
<title>OrthancModule&#45;&gt;AppModule</title>
<path fill="none" stroke="black" d="M912.25,-122.11C912.25,-122.11 912.25,-140.99 912.25,-140.99"/>
<polygon fill="black" stroke="black" points="908.75,-140.99 912.25,-150.99 915.75,-140.99 908.75,-140.99"/>
</g>
<!-- ProcessingModule -->
<g id="node8" class="node">
<title>ProcessingModule</title>
<polygon fill="#8dd3c7" stroke="black" points="880.2,-122 877.2,-126 856.2,-126 853.2,-122 759.8,-122 759.8,-86 880.2,-86 880.2,-122"/>
<text text-anchor="middle" x="820" y="-99.8" font-family="Times,serif" font-size="14.00">ProcessingModule</text>
</g>
<!-- ProcessingModule&#45;&gt;AppModule -->
<g id="edge8" class="edge">
<title>ProcessingModule&#45;&gt;AppModule</title>
<path fill="none" stroke="black" d="M861.64,-122.11C861.64,-122.11 861.64,-140.99 861.64,-140.99"/>
<polygon fill="black" stroke="black" points="858.14,-140.99 861.64,-150.99 865.14,-140.99 858.14,-140.99"/>
</g>
<!-- QueueModule -->
<g id="node9" class="node">
<title>QueueModule</title>
<polygon fill="#8dd3c7" stroke="black" points="742.09,-122 739.09,-126 718.09,-126 715.09,-122 645.91,-122 645.91,-86 742.09,-86 742.09,-122"/>
<text text-anchor="middle" x="694" y="-99.8" font-family="Times,serif" font-size="14.00">QueueModule</text>
</g>
<!-- QueueModule&#45;&gt;AppModule -->
<g id="edge9" class="edge">
<title>QueueModule&#45;&gt;AppModule</title>
<path fill="none" stroke="black" d="M694,-122.24C694,-137.57 694,-157 694,-157 694,-157 833.08,-157 833.08,-157"/>
<polygon fill="black" stroke="black" points="833.08,-160.5 843.08,-157 833.08,-153.5 833.08,-160.5"/>
</g>
<!-- RolesModule -->
<g id="node10" class="node">
<title>RolesModule</title>
<polygon fill="#8dd3c7" stroke="black" points="627.94,-122 624.94,-126 603.94,-126 600.94,-122 536.06,-122 536.06,-86 627.94,-86 627.94,-122"/>
<text text-anchor="middle" x="582" y="-99.8" font-family="Times,serif" font-size="14.00">RolesModule</text>
</g>
<!-- RolesModule&#45;&gt;AppModule -->
<g id="edge10" class="edge">
<title>RolesModule&#45;&gt;AppModule</title>
<path fill="none" stroke="black" d="M582,-122.03C582,-139.06 582,-162 582,-162 582,-162 833.19,-162 833.19,-162"/>
<polygon fill="black" stroke="black" points="833.19,-165.5 843.19,-162 833.19,-158.5 833.19,-165.5"/>
</g>
<!-- SeederModule -->
<g id="node11" class="node">
<title>SeederModule</title>
<polygon fill="#8dd3c7" stroke="black" points="517.64,-122 514.64,-126 493.64,-126 490.64,-122 420.36,-122 420.36,-86 517.64,-86 517.64,-122"/>
<text text-anchor="middle" x="469" y="-99.8" font-family="Times,serif" font-size="14.00">SeederModule</text>
</g>
<!-- SeederModule&#45;&gt;AppModule -->
<g id="edge11" class="edge">
<title>SeederModule&#45;&gt;AppModule</title>
<path fill="none" stroke="black" d="M469,-122.22C469,-140.83 469,-167 469,-167 469,-167 833.21,-167 833.21,-167"/>
<polygon fill="black" stroke="black" points="833.21,-170.5 843.21,-167 833.21,-163.5 833.21,-170.5"/>
</g>
<!-- TasksModule -->
<g id="node12" class="node">
<title>TasksModule</title>
<polygon fill="#8dd3c7" stroke="black" points="402.21,-122 399.21,-126 378.21,-126 375.21,-122 309.79,-122 309.79,-86 402.21,-86 402.21,-122"/>
<text text-anchor="middle" x="356" y="-99.8" font-family="Times,serif" font-size="14.00">TasksModule</text>
</g>
<!-- TasksModule&#45;&gt;AppModule -->
<g id="edge12" class="edge">
<title>TasksModule&#45;&gt;AppModule</title>
<path fill="none" stroke="black" d="M356,-122.22C356,-142.37 356,-172 356,-172 356,-172 833.05,-172 833.05,-172"/>
<polygon fill="black" stroke="black" points="833.05,-175.5 843.05,-172 833.05,-168.5 833.05,-175.5"/>
</g>
<!-- UsersModule -->
<g id="node13" class="node">
<title>UsersModule</title>
<polygon fill="#8dd3c7" stroke="black" points="291.92,-122 288.92,-126 267.92,-126 264.92,-122 200.08,-122 200.08,-86 291.92,-86 291.92,-122"/>
<text text-anchor="middle" x="246" y="-99.8" font-family="Times,serif" font-size="14.00">UsersModule</text>
</g>
<!-- UsersModule&#45;&gt;AppModule -->
<g id="edge13" class="edge">
<title>UsersModule&#45;&gt;AppModule</title>
<path fill="none" stroke="black" d="M246,-122.04C246,-143.66 246,-177 246,-177 246,-177 833.07,-177 833.07,-177"/>
<polygon fill="black" stroke="black" points="833.07,-180.5 843.07,-177 833.07,-173.5 833.07,-180.5"/>
</g>
<!-- ProcessingClient -->
<g id="node15" class="node">
<title>ProcessingClient</title>
<ellipse fill="#fdb462" stroke="black" cx="100" cy="-104" rx="76.46" ry="18"/>
<text text-anchor="middle" x="100" y="-99.8" font-family="Times,serif" font-size="14.00">ProcessingClient</text>
</g>
<!-- ProcessingClient&#45;&gt;AppModule -->
<g id="edge14" class="edge">
<title>ProcessingClient&#45;&gt;AppModule</title>
<path fill="none" stroke="black" d="M100,-122.09C100,-145.13 100,-182 100,-182 100,-182 833.07,-182 833.07,-182"/>
<polygon fill="black" stroke="black" points="833.07,-185.5 843.07,-182 833.07,-178.5 833.07,-185.5"/>
</g>
</g>
</svg>
