<?xml version="1.0" encoding="UTF-8" standalone="no"?>
<!DOCTYPE svg PUBLIC "-//W3C//DTD SVG 1.1//EN"
 "http://www.w3.org/Graphics/SVG/1.1/DTD/svg11.dtd">
<!-- Generated by graphviz version 2.47.0 (20210316.0004)
 -->
<!-- Title: dependencies Pages: 1 -->
<svg width="1224pt" height="284pt"
 viewBox="0.00 0.00 1224.00 284.00" xmlns="http://www.w3.org/2000/svg" xmlns:xlink="http://www.w3.org/1999/xlink">
<g id="graph0" class="graph" transform="scale(1 1) rotate(0) translate(4 280)">
<title>dependencies</title>
<polygon fill="white" stroke="transparent" points="-4,4 -4,-280 1220,-280 1220,4 -4,4"/>
<text text-anchor="start" x="587.01" y="-42.4" font-family="Times-12" font-weight="bold" font-size="14.00">Legend</text>
<polygon fill="#ffffb3" stroke="transparent" points="374,-10 374,-30 394,-30 394,-10 374,-10"/>
<text text-anchor="start" x="397.63" y="-15.4" font-family="Times-12" font-size="14.00"> &#160;Declarations</text>
<polygon fill="#8dd3c7" stroke="transparent" points="487,-10 487,-30 507,-30 507,-10 487,-10"/>
<text text-anchor="start" x="510.73" y="-15.4" font-family="Times-12" font-size="14.00"> &#160;Module</text>
<polygon fill="#80b1d3" stroke="transparent" points="573,-10 573,-30 593,-30 593,-10 573,-10"/>
<text text-anchor="start" x="596.78" y="-15.4" font-family="Times-12" font-size="14.00"> &#160;Bootstrap</text>
<polygon fill="#fdb462" stroke="transparent" points="670,-10 670,-30 690,-30 690,-10 670,-10"/>
<text text-anchor="start" x="693.67" y="-15.4" font-family="Times-12" font-size="14.00"> &#160;Providers</text>
<polygon fill="#fb8072" stroke="transparent" points="766,-10 766,-30 786,-30 786,-10 766,-10"/>
<text text-anchor="start" x="789.73" y="-15.4" font-family="Times-12" font-size="14.00"> &#160;Exports</text>
<g id="clust1" class="cluster">
<title>cluster_AuthModule</title>
<polygon fill="none" stroke="black" stroke-dasharray="1,5" points="8,-70 8,-268 1208,-268 1208,-70 8,-70"/>
</g>
<g id="clust4" class="cluster">
<title>cluster_AuthModule_exports</title>
<polygon fill="none" stroke="black" points="556,-208 556,-260 662,-260 662,-208 556,-208"/>
</g>
<g id="clust6" class="cluster">
<title>cluster_AuthModule_providers</title>
<polygon fill="none" stroke="black" points="132,-78 132,-130 1200,-130 1200,-78 132,-78"/>
</g>
<g id="clust3" class="cluster">
<title>cluster_AuthModule_imports</title>
<polygon fill="none" stroke="black" points="16,-78 16,-130 124,-130 124,-78 16,-78"/>
</g>
<!-- UsersModule -->
<g id="node1" class="node">
<title>UsersModule</title>
<polygon fill="#8dd3c7" stroke="black" points="115.92,-122 112.92,-126 91.92,-126 88.92,-122 24.08,-122 24.08,-86 115.92,-86 115.92,-122"/>
<text text-anchor="middle" x="70" y="-99.8" font-family="Times,serif" font-size="14.00">UsersModule</text>
</g>
<!-- AuthModule -->
<g id="node2" class="node">
<title>AuthModule</title>
<polygon fill="#8dd3c7" stroke="black" points="652.55,-187 649.55,-191 628.55,-191 625.55,-187 565.45,-187 565.45,-151 652.55,-151 652.55,-187"/>
<text text-anchor="middle" x="609" y="-164.8" font-family="Times,serif" font-size="14.00">AuthModule</text>
</g>
<!-- UsersModule&#45;&gt;AuthModule -->
<g id="edge1" class="edge">
<title>UsersModule&#45;&gt;AuthModule</title>
<path fill="none" stroke="black" d="M70,-122.29C70,-144.21 70,-178 70,-178 70,-178 555.35,-178 555.35,-178"/>
<polygon fill="black" stroke="black" points="555.35,-181.5 565.35,-178 555.35,-174.5 555.35,-181.5"/>
</g>
<!-- AuthService  -->
<g id="node3" class="node">
<title>AuthService </title>
<polygon fill="#fb8072" stroke="black" points="653.98,-252 564.02,-252 564.02,-216 653.98,-216 653.98,-252"/>
<text text-anchor="middle" x="609" y="-229.8" font-family="Times,serif" font-size="14.00">AuthService </text>
</g>
<!-- AuthModule&#45;&gt;AuthService  -->
<g id="edge2" class="edge">
<title>AuthModule&#45;&gt;AuthService </title>
<path fill="none" stroke="black" stroke-dasharray="5,2" d="M609,-187.11C609,-187.11 609,-205.99 609,-205.99"/>
<polygon fill="black" stroke="black" points="605.5,-205.99 609,-215.99 612.5,-205.99 605.5,-205.99"/>
</g>
<!-- AuthService -->
<g id="node4" class="node">
<title>AuthService</title>
<ellipse fill="#fdb462" stroke="black" cx="1133" cy="-104" rx="59.11" ry="18"/>
<text text-anchor="middle" x="1133" y="-99.8" font-family="Times,serif" font-size="14.00">AuthService</text>
</g>
<!-- AuthService&#45;&gt;AuthModule -->
<g id="edge3" class="edge">
<title>AuthService&#45;&gt;AuthModule</title>
<path fill="none" stroke="black" d="M1133,-122.29C1133,-144.21 1133,-178 1133,-178 1133,-178 662.77,-178 662.77,-178"/>
<polygon fill="black" stroke="black" points="662.77,-174.5 652.77,-178 662.77,-181.5 662.77,-174.5"/>
</g>
<!-- JwtOauthStrategy -->
<g id="node5" class="node">
<title>JwtOauthStrategy</title>
<ellipse fill="#fdb462" stroke="black" cx="975" cy="-104" rx="80.45" ry="18"/>
<text text-anchor="middle" x="975" y="-99.8" font-family="Times,serif" font-size="14.00">JwtOauthStrategy</text>
</g>
<!-- JwtOauthStrategy&#45;&gt;AuthModule -->
<g id="edge4" class="edge">
<title>JwtOauthStrategy&#45;&gt;AuthModule</title>
<path fill="none" stroke="black" d="M975,-122.11C975,-141.34 975,-169 975,-169 975,-169 662.78,-169 662.78,-169"/>
<polygon fill="black" stroke="black" points="662.78,-165.5 652.78,-169 662.78,-172.5 662.78,-165.5"/>
</g>
<!-- JwtStrategy -->
<g id="node6" class="node">
<title>JwtStrategy</title>
<ellipse fill="#fdb462" stroke="black" cx="820" cy="-104" rx="56.76" ry="18"/>
<text text-anchor="middle" x="820" y="-99.8" font-family="Times,serif" font-size="14.00">JwtStrategy</text>
</g>
<!-- JwtStrategy&#45;&gt;AuthModule -->
<g id="edge5" class="edge">
<title>JwtStrategy&#45;&gt;AuthModule</title>
<path fill="none" stroke="black" d="M820,-122.03C820,-138.4 820,-160 820,-160 820,-160 662.72,-160 662.72,-160"/>
<polygon fill="black" stroke="black" points="662.72,-156.5 652.72,-160 662.72,-163.5 662.72,-156.5"/>
</g>
<!-- LocalStrategy -->
<g id="node7" class="node">
<title>LocalStrategy</title>
<ellipse fill="#fdb462" stroke="black" cx="680" cy="-104" rx="65.41" ry="18"/>
<text text-anchor="middle" x="680" y="-99.8" font-family="Times,serif" font-size="14.00">LocalStrategy</text>
</g>
<!-- LocalStrategy&#45;&gt;AuthModule -->
<g id="edge6" class="edge">
<title>LocalStrategy&#45;&gt;AuthModule</title>
<path fill="none" stroke="black" d="M633.79,-116.84C633.79,-116.84 633.79,-140.52 633.79,-140.52"/>
<polygon fill="black" stroke="black" points="630.29,-140.52 633.79,-150.52 637.29,-140.52 630.29,-140.52"/>
</g>
<!-- MailService -->
<g id="node8" class="node">
<title>MailService</title>
<ellipse fill="#fdb462" stroke="black" cx="539" cy="-104" rx="58.46" ry="18"/>
<text text-anchor="middle" x="539" y="-99.8" font-family="Times,serif" font-size="14.00">MailService</text>
</g>
<!-- MailService&#45;&gt;AuthModule -->
<g id="edge7" class="edge">
<title>MailService&#45;&gt;AuthModule</title>
<path fill="none" stroke="black" d="M581.23,-116.53C581.23,-116.53 581.23,-140.85 581.23,-140.85"/>
<polygon fill="black" stroke="black" points="577.73,-140.85 581.23,-150.85 584.73,-140.85 577.73,-140.85"/>
</g>
<!-- OauthConfigService -->
<g id="node9" class="node">
<title>OauthConfigService</title>
<ellipse fill="#fdb462" stroke="black" cx="372" cy="-104" rx="90.33" ry="18"/>
<text text-anchor="middle" x="372" y="-99.8" font-family="Times,serif" font-size="14.00">OauthConfigService</text>
</g>
<!-- OauthConfigService&#45;&gt;AuthModule -->
<g id="edge8" class="edge">
<title>OauthConfigService&#45;&gt;AuthModule</title>
<path fill="none" stroke="black" d="M372,-122.03C372,-138.4 372,-160 372,-160 372,-160 555.25,-160 555.25,-160"/>
<polygon fill="black" stroke="black" points="555.25,-163.5 565.25,-160 555.25,-156.5 555.25,-163.5"/>
</g>
<!-- UsersService -->
<g id="node10" class="node">
<title>UsersService</title>
<ellipse fill="#fdb462" stroke="black" cx="202" cy="-104" rx="61.95" ry="18"/>
<text text-anchor="middle" x="202" y="-99.8" font-family="Times,serif" font-size="14.00">UsersService</text>
</g>
<!-- UsersService&#45;&gt;AuthModule -->
<g id="edge9" class="edge">
<title>UsersService&#45;&gt;AuthModule</title>
<path fill="none" stroke="black" d="M202,-122.11C202,-141.34 202,-169 202,-169 202,-169 555.44,-169 555.44,-169"/>
<polygon fill="black" stroke="black" points="555.44,-172.5 565.44,-169 555.44,-165.5 555.44,-172.5"/>
</g>
</g>
</svg>
