<?xml version="1.0" encoding="UTF-8" standalone="no"?>
<!DOCTYPE svg PUBLIC "-//W3C//DTD SVG 1.1//EN"
 "http://www.w3.org/Graphics/SVG/1.1/DTD/svg11.dtd">
<!-- Generated by graphviz version 2.47.0 (20210316.0004)
 -->
<!-- Title: dependencies Pages: 1 -->
<svg width="1224pt" height="284pt"
 viewBox="0.00 0.00 1224.00 284.00" xmlns="http://www.w3.org/2000/svg" xmlns:xlink="http://www.w3.org/1999/xlink">
<g id="graph0" class="graph" transform="scale(1 1) rotate(0) translate(4 280)">
<title>dependencies</title>
<polygon fill="white" stroke="transparent" points="-4,4 -4,-280 1220,-280 1220,4 -4,4"/>
<text text-anchor="start" x="587.01" y="-42.4" font-family="Times-12" font-weight="bold" font-size="14.00">Legend</text>
<polygon fill="#ffffb3" stroke="transparent" points="374,-10 374,-30 394,-30 394,-10 374,-10"/>
<text text-anchor="start" x="397.63" y="-15.4" font-family="Times-12" font-size="14.00"> &#160;Declarations</text>
<polygon fill="#8dd3c7" stroke="transparent" points="487,-10 487,-30 507,-30 507,-10 487,-10"/>
<text text-anchor="start" x="510.73" y="-15.4" font-family="Times-12" font-size="14.00"> &#160;Module</text>
<polygon fill="#80b1d3" stroke="transparent" points="573,-10 573,-30 593,-30 593,-10 573,-10"/>
<text text-anchor="start" x="596.78" y="-15.4" font-family="Times-12" font-size="14.00"> &#160;Bootstrap</text>
<polygon fill="#fdb462" stroke="transparent" points="670,-10 670,-30 690,-30 690,-10 670,-10"/>
<text text-anchor="start" x="693.67" y="-15.4" font-family="Times-12" font-size="14.00"> &#160;Providers</text>
<polygon fill="#fb8072" stroke="transparent" points="766,-10 766,-30 786,-30 786,-10 766,-10"/>
<text text-anchor="start" x="789.73" y="-15.4" font-family="Times-12" font-size="14.00"> &#160;Exports</text>
<g id="clust1" class="cluster">
<title>cluster_AuthModule</title>
<polygon fill="none" stroke="black" stroke-dasharray="1,5" points="8,-70 8,-268 1208,-268 1208,-70 8,-70"/>
</g>
<g id="clust3" class="cluster">
<title>cluster_AuthModule_imports</title>
<polygon fill="none" stroke="black" points="1092,-78 1092,-130 1200,-130 1200,-78 1092,-78"/>
</g>
<g id="clust6" class="cluster">
<title>cluster_AuthModule_providers</title>
<polygon fill="none" stroke="black" points="16,-78 16,-130 1084,-130 1084,-78 16,-78"/>
</g>
<g id="clust4" class="cluster">
<title>cluster_AuthModule_exports</title>
<polygon fill="none" stroke="black" points="581,-208 581,-260 687,-260 687,-208 581,-208"/>
</g>
<!-- UsersModule -->
<g id="node1" class="node">
<title>UsersModule</title>
<polygon fill="#8dd3c7" stroke="black" points="1191.92,-122 1188.92,-126 1167.92,-126 1164.92,-122 1100.08,-122 1100.08,-86 1191.92,-86 1191.92,-122"/>
<text text-anchor="middle" x="1146" y="-99.8" font-family="Times,serif" font-size="14.00">UsersModule</text>
</g>
<!-- AuthModule -->
<g id="node2" class="node">
<title>AuthModule</title>
<polygon fill="#8dd3c7" stroke="black" points="677.55,-187 674.55,-191 653.55,-191 650.55,-187 590.45,-187 590.45,-151 677.55,-151 677.55,-187"/>
<text text-anchor="middle" x="634" y="-164.8" font-family="Times,serif" font-size="14.00">AuthModule</text>
</g>
<!-- UsersModule&#45;&gt;AuthModule -->
<g id="edge1" class="edge">
<title>UsersModule&#45;&gt;AuthModule</title>
<path fill="none" stroke="black" d="M1146,-122.29C1146,-144.21 1146,-178 1146,-178 1146,-178 687.65,-178 687.65,-178"/>
<polygon fill="black" stroke="black" points="687.65,-174.5 677.65,-178 687.65,-181.5 687.65,-174.5"/>
</g>
<!-- AuthService  -->
<g id="node3" class="node">
<title>AuthService </title>
<polygon fill="#fb8072" stroke="black" points="678.98,-252 589.02,-252 589.02,-216 678.98,-216 678.98,-252"/>
<text text-anchor="middle" x="634" y="-229.8" font-family="Times,serif" font-size="14.00">AuthService </text>
</g>
<!-- AuthModule&#45;&gt;AuthService  -->
<g id="edge2" class="edge">
<title>AuthModule&#45;&gt;AuthService </title>
<path fill="none" stroke="black" stroke-dasharray="5,2" d="M634,-187.11C634,-187.11 634,-205.99 634,-205.99"/>
<polygon fill="black" stroke="black" points="630.5,-205.99 634,-215.99 637.5,-205.99 630.5,-205.99"/>
</g>
<!-- AuthService -->
<g id="node4" class="node">
<title>AuthService</title>
<ellipse fill="#fdb462" stroke="black" cx="1017" cy="-104" rx="59.11" ry="18"/>
<text text-anchor="middle" x="1017" y="-99.8" font-family="Times,serif" font-size="14.00">AuthService</text>
</g>
<!-- AuthService&#45;&gt;AuthModule -->
<g id="edge3" class="edge">
<title>AuthService&#45;&gt;AuthModule</title>
<path fill="none" stroke="black" d="M1017,-122.11C1017,-141.34 1017,-169 1017,-169 1017,-169 687.56,-169 687.56,-169"/>
<polygon fill="black" stroke="black" points="687.56,-165.5 677.56,-169 687.56,-172.5 687.56,-165.5"/>
</g>
<!-- JwtOauthStrategy -->
<g id="node5" class="node">
<title>JwtOauthStrategy</title>
<ellipse fill="#fdb462" stroke="black" cx="859" cy="-104" rx="80.45" ry="18"/>
<text text-anchor="middle" x="859" y="-99.8" font-family="Times,serif" font-size="14.00">JwtOauthStrategy</text>
</g>
<!-- JwtOauthStrategy&#45;&gt;AuthModule -->
<g id="edge4" class="edge">
<title>JwtOauthStrategy&#45;&gt;AuthModule</title>
<path fill="none" stroke="black" d="M859,-122.03C859,-138.4 859,-160 859,-160 859,-160 687.65,-160 687.65,-160"/>
<polygon fill="black" stroke="black" points="687.65,-156.5 677.65,-160 687.65,-163.5 687.65,-156.5"/>
</g>
<!-- JwtStrategy -->
<g id="node6" class="node">
<title>JwtStrategy</title>
<ellipse fill="#fdb462" stroke="black" cx="704" cy="-104" rx="56.76" ry="18"/>
<text text-anchor="middle" x="704" y="-99.8" font-family="Times,serif" font-size="14.00">JwtStrategy</text>
</g>
<!-- JwtStrategy&#45;&gt;AuthModule -->
<g id="edge5" class="edge">
<title>JwtStrategy&#45;&gt;AuthModule</title>
<path fill="none" stroke="black" d="M662.57,-116.53C662.57,-116.53 662.57,-140.85 662.57,-140.85"/>
<polygon fill="black" stroke="black" points="659.07,-140.85 662.57,-150.85 666.07,-140.85 659.07,-140.85"/>
</g>
<!-- LocalStrategy -->
<g id="node7" class="node">
<title>LocalStrategy</title>
<ellipse fill="#fdb462" stroke="black" cx="564" cy="-104" rx="65.41" ry="18"/>
<text text-anchor="middle" x="564" y="-99.8" font-family="Times,serif" font-size="14.00">LocalStrategy</text>
</g>
<!-- LocalStrategy&#45;&gt;AuthModule -->
<g id="edge6" class="edge">
<title>LocalStrategy&#45;&gt;AuthModule</title>
<path fill="none" stroke="black" d="M609.71,-116.84C609.71,-116.84 609.71,-140.52 609.71,-140.52"/>
<polygon fill="black" stroke="black" points="606.21,-140.52 609.71,-150.52 613.21,-140.52 606.21,-140.52"/>
</g>
<!-- MailService -->
<g id="node8" class="node">
<title>MailService</title>
<ellipse fill="#fdb462" stroke="black" cx="423" cy="-104" rx="58.46" ry="18"/>
<text text-anchor="middle" x="423" y="-99.8" font-family="Times,serif" font-size="14.00">MailService</text>
</g>
<!-- MailService&#45;&gt;AuthModule -->
<g id="edge7" class="edge">
<title>MailService&#45;&gt;AuthModule</title>
<path fill="none" stroke="black" d="M423,-122.03C423,-138.4 423,-160 423,-160 423,-160 580.28,-160 580.28,-160"/>
<polygon fill="black" stroke="black" points="580.28,-163.5 590.28,-160 580.28,-156.5 580.28,-163.5"/>
</g>
<!-- OauthConfigService -->
<g id="node9" class="node">
<title>OauthConfigService</title>
<ellipse fill="#fdb462" stroke="black" cx="256" cy="-104" rx="90.33" ry="18"/>
<text text-anchor="middle" x="256" y="-99.8" font-family="Times,serif" font-size="14.00">OauthConfigService</text>
</g>
<!-- OauthConfigService&#45;&gt;AuthModule -->
<g id="edge8" class="edge">
<title>OauthConfigService&#45;&gt;AuthModule</title>
<path fill="none" stroke="black" d="M256,-122.11C256,-141.34 256,-169 256,-169 256,-169 580.27,-169 580.27,-169"/>
<polygon fill="black" stroke="black" points="580.27,-172.5 590.27,-169 580.27,-165.5 580.27,-172.5"/>
</g>
<!-- UsersService -->
<g id="node10" class="node">
<title>UsersService</title>
<ellipse fill="#fdb462" stroke="black" cx="86" cy="-104" rx="61.95" ry="18"/>
<text text-anchor="middle" x="86" y="-99.8" font-family="Times,serif" font-size="14.00">UsersService</text>
</g>
<!-- UsersService&#45;&gt;AuthModule -->
<g id="edge9" class="edge">
<title>UsersService&#45;&gt;AuthModule</title>
<path fill="none" stroke="black" d="M86,-122.29C86,-144.21 86,-178 86,-178 86,-178 580.08,-178 580.08,-178"/>
<polygon fill="black" stroke="black" points="580.08,-181.5 590.08,-178 580.08,-174.5 580.08,-181.5"/>
</g>
</g>
</svg>
