<?xml version="1.0" encoding="UTF-8" standalone="no"?>
<!DOCTYPE svg PUBLIC "-//W3C//DTD SVG 1.1//EN"
 "http://www.w3.org/Graphics/SVG/1.1/DTD/svg11.dtd">
<!-- Generated by graphviz version 2.47.0 (20210316.0004)
 -->
<!-- Title: dependencies Pages: 1 -->
<svg width="796pt" height="284pt"
 viewBox="0.00 0.00 796.00 284.00" xmlns="http://www.w3.org/2000/svg" xmlns:xlink="http://www.w3.org/1999/xlink">
<g id="graph0" class="graph" transform="scale(1 1) rotate(0) translate(4 280)">
<title>dependencies</title>
<polygon fill="white" stroke="transparent" points="-4,4 -4,-280 792,-280 792,4 -4,4"/>
<text text-anchor="start" x="373.01" y="-42.4" font-family="Times-12" font-weight="bold" font-size="14.00">Legend</text>
<polygon fill="#ffffb3" stroke="transparent" points="160,-10 160,-30 180,-30 180,-10 160,-10"/>
<text text-anchor="start" x="183.63" y="-15.4" font-family="Times-12" font-size="14.00"> &#160;Declarations</text>
<polygon fill="#8dd3c7" stroke="transparent" points="273,-10 273,-30 293,-30 293,-10 273,-10"/>
<text text-anchor="start" x="296.73" y="-15.4" font-family="Times-12" font-size="14.00"> &#160;Module</text>
<polygon fill="#80b1d3" stroke="transparent" points="359,-10 359,-30 379,-30 379,-10 359,-10"/>
<text text-anchor="start" x="382.78" y="-15.4" font-family="Times-12" font-size="14.00"> &#160;Bootstrap</text>
<polygon fill="#fdb462" stroke="transparent" points="456,-10 456,-30 476,-30 476,-10 456,-10"/>
<text text-anchor="start" x="479.67" y="-15.4" font-family="Times-12" font-size="14.00"> &#160;Providers</text>
<polygon fill="#fb8072" stroke="transparent" points="552,-10 552,-30 572,-30 572,-10 552,-10"/>
<text text-anchor="start" x="575.73" y="-15.4" font-family="Times-12" font-size="14.00"> &#160;Exports</text>
<g id="clust1" class="cluster">
<title>cluster_TasksModule</title>
<polygon fill="none" stroke="black" stroke-dasharray="1,5" points="8,-70 8,-268 780,-268 780,-70 8,-70"/>
</g>
<g id="clust6" class="cluster">
<title>cluster_TasksModule_providers</title>
<polygon fill="none" stroke="black" points="16,-78 16,-130 772,-130 772,-78 16,-78"/>
</g>
<g id="clust4" class="cluster">
<title>cluster_TasksModule_exports</title>
<polygon fill="none" stroke="black" points="264,-208 264,-260 572,-260 572,-208 264,-208"/>
</g>
<!-- OrthancMonitoringTask  -->
<g id="node1" class="node">
<title>OrthancMonitoringTask </title>
<polygon fill="#fb8072" stroke="black" points="563.58,-252 408.42,-252 408.42,-216 563.58,-216 563.58,-252"/>
<text text-anchor="middle" x="486" y="-229.8" font-family="Times,serif" font-size="14.00">OrthancMonitoringTask </text>
</g>
<!-- QueryQueueTask  -->
<g id="node2" class="node">
<title>QueryQueueTask </title>
<polygon fill="#fb8072" stroke="black" points="390.23,-252 271.77,-252 271.77,-216 390.23,-216 390.23,-252"/>
<text text-anchor="middle" x="331" y="-229.8" font-family="Times,serif" font-size="14.00">QueryQueueTask </text>
</g>
<!-- TasksModule -->
<g id="node3" class="node">
<title>TasksModule</title>
<polygon fill="#8dd3c7" stroke="black" points="454.21,-187 451.21,-191 430.21,-191 427.21,-187 361.79,-187 361.79,-151 454.21,-151 454.21,-187"/>
<text text-anchor="middle" x="408" y="-164.8" font-family="Times,serif" font-size="14.00">TasksModule</text>
</g>
<!-- TasksModule&#45;&gt;OrthancMonitoringTask  -->
<g id="edge1" class="edge">
<title>TasksModule&#45;&gt;OrthancMonitoringTask </title>
<path fill="none" stroke="black" stroke-dasharray="5,2" d="M431.16,-187.11C431.16,-187.11 431.16,-205.99 431.16,-205.99"/>
<polygon fill="black" stroke="black" points="427.66,-205.99 431.16,-215.99 434.66,-205.99 427.66,-205.99"/>
</g>
<!-- TasksModule&#45;&gt;QueryQueueTask  -->
<g id="edge2" class="edge">
<title>TasksModule&#45;&gt;QueryQueueTask </title>
<path fill="none" stroke="black" stroke-dasharray="5,2" d="M376.01,-187.11C376.01,-187.11 376.01,-205.99 376.01,-205.99"/>
<polygon fill="black" stroke="black" points="372.51,-205.99 376.01,-215.99 379.51,-205.99 372.51,-205.99"/>
</g>
<!-- OrthancClient -->
<g id="node4" class="node">
<title>OrthancClient</title>
<ellipse fill="#fdb462" stroke="black" cx="698" cy="-104" rx="65.99" ry="18"/>
<text text-anchor="middle" x="698" y="-99.8" font-family="Times,serif" font-size="14.00">OrthancClient</text>
</g>
<!-- OrthancClient&#45;&gt;TasksModule -->
<g id="edge3" class="edge">
<title>OrthancClient&#45;&gt;TasksModule</title>
<path fill="none" stroke="black" d="M698,-122.11C698,-141.34 698,-169 698,-169 698,-169 464.27,-169 464.27,-169"/>
<polygon fill="black" stroke="black" points="464.27,-165.5 454.27,-169 464.27,-172.5 464.27,-165.5"/>
</g>
<!-- OrthancMonitoringTask -->
<g id="node5" class="node">
<title>OrthancMonitoringTask</title>
<ellipse fill="#fdb462" stroke="black" cx="509" cy="-104" rx="104.8" ry="18"/>
<text text-anchor="middle" x="509" y="-99.8" font-family="Times,serif" font-size="14.00">OrthancMonitoringTask</text>
</g>
<!-- OrthancMonitoringTask&#45;&gt;TasksModule -->
<g id="edge4" class="edge">
<title>OrthancMonitoringTask&#45;&gt;TasksModule</title>
<path fill="none" stroke="black" d="M429.1,-115.92C429.1,-115.92 429.1,-140.77 429.1,-140.77"/>
<polygon fill="black" stroke="black" points="425.6,-140.77 429.1,-150.77 432.6,-140.77 425.6,-140.77"/>
</g>
<!-- QueryQueueTask -->
<g id="node6" class="node">
<title>QueryQueueTask</title>
<ellipse fill="#fdb462" stroke="black" cx="307" cy="-104" rx="79.28" ry="18"/>
<text text-anchor="middle" x="307" y="-99.8" font-family="Times,serif" font-size="14.00">QueryQueueTask</text>
</g>
<!-- QueryQueueTask&#45;&gt;TasksModule -->
<g id="edge5" class="edge">
<title>QueryQueueTask&#45;&gt;TasksModule</title>
<path fill="none" stroke="black" d="M374.02,-113.59C374.02,-113.59 374.02,-140.75 374.02,-140.75"/>
<polygon fill="black" stroke="black" points="370.52,-140.75 374.02,-150.75 377.52,-140.75 370.52,-140.75"/>
</g>
<!-- QueuesQueryService -->
<g id="node7" class="node">
<title>QueuesQueryService</title>
<ellipse fill="#fdb462" stroke="black" cx="117" cy="-104" rx="93.16" ry="18"/>
<text text-anchor="middle" x="117" y="-99.8" font-family="Times,serif" font-size="14.00">QueuesQueryService</text>
</g>
<!-- QueuesQueryService&#45;&gt;TasksModule -->
<g id="edge6" class="edge">
<title>QueuesQueryService&#45;&gt;TasksModule</title>
<path fill="none" stroke="black" d="M117,-122.11C117,-141.34 117,-169 117,-169 117,-169 351.89,-169 351.89,-169"/>
<polygon fill="black" stroke="black" points="351.89,-172.5 361.89,-169 351.89,-165.5 351.89,-172.5"/>
</g>
</g>
</svg>
