<?xml version="1.0" encoding="UTF-8" standalone="no"?>
<!DOCTYPE svg PUBLIC "-//W3C//DTD SVG 1.1//EN"
 "http://www.w3.org/Graphics/SVG/1.1/DTD/svg11.dtd">
<!-- Generated by graphviz version 2.47.0 (20210316.0004)
 -->
<!-- Title: dependencies Pages: 1 -->
<svg width="504pt" height="211pt"
 viewBox="0.00 0.00 504.00 211.00" xmlns="http://www.w3.org/2000/svg" xmlns:xlink="http://www.w3.org/1999/xlink">
<g id="graph0" class="graph" transform="scale(1 1) rotate(0) translate(4 207)">
<title>dependencies</title>
<polygon fill="white" stroke="transparent" points="-4,4 -4,-207 500,-207 500,4 -4,4"/>
<text text-anchor="start" x="227.01" y="-42.4" font-family="Times-12" font-weight="bold" font-size="14.00">Legend</text>
<polygon fill="#ffffb3" stroke="transparent" points="14,-10 14,-30 34,-30 34,-10 14,-10"/>
<text text-anchor="start" x="37.63" y="-15.4" font-family="Times-12" font-size="14.00"> &#160;Declarations</text>
<polygon fill="#8dd3c7" stroke="transparent" points="127,-10 127,-30 147,-30 147,-10 127,-10"/>
<text text-anchor="start" x="150.73" y="-15.4" font-family="Times-12" font-size="14.00"> &#160;Module</text>
<polygon fill="#80b1d3" stroke="transparent" points="213,-10 213,-30 233,-30 233,-10 213,-10"/>
<text text-anchor="start" x="236.78" y="-15.4" font-family="Times-12" font-size="14.00"> &#160;Bootstrap</text>
<polygon fill="#fdb462" stroke="transparent" points="310,-10 310,-30 330,-30 330,-10 310,-10"/>
<text text-anchor="start" x="333.67" y="-15.4" font-family="Times-12" font-size="14.00"> &#160;Providers</text>
<polygon fill="#fb8072" stroke="transparent" points="406,-10 406,-30 426,-30 426,-10 406,-10"/>
<text text-anchor="start" x="429.73" y="-15.4" font-family="Times-12" font-size="14.00"> &#160;Exports</text>
<g id="clust1" class="cluster">
<title>cluster_OrthancModule</title>
<polygon fill="none" stroke="black" stroke-dasharray="1,5" points="40,-70 40,-195 456,-195 456,-70 40,-70"/>
</g>
<g id="clust6" class="cluster">
<title>cluster_OrthancModule_providers</title>
<polygon fill="none" stroke="black" points="164,-78 164,-130 448,-130 448,-78 164,-78"/>
</g>
<g id="clust3" class="cluster">
<title>cluster_OrthancModule_imports</title>
<polygon fill="none" stroke="black" points="48,-78 48,-130 156,-130 156,-78 48,-78"/>
</g>
<!-- RolesModule -->
<g id="node1" class="node">
<title>RolesModule</title>
<polygon fill="#8dd3c7" stroke="black" points="147.94,-122 144.94,-126 123.94,-126 120.94,-122 56.06,-122 56.06,-86 147.94,-86 147.94,-122"/>
<text text-anchor="middle" x="102" y="-99.8" font-family="Times,serif" font-size="14.00">RolesModule</text>
</g>
<!-- OrthancModule -->
<g id="node2" class="node">
<title>OrthancModule</title>
<polygon fill="#8dd3c7" stroke="black" points="283.14,-187 280.14,-191 259.14,-191 256.14,-187 178.86,-187 178.86,-151 283.14,-151 283.14,-187"/>
<text text-anchor="middle" x="231" y="-164.8" font-family="Times,serif" font-size="14.00">OrthancModule</text>
</g>
<!-- RolesModule&#45;&gt;OrthancModule -->
<g id="edge1" class="edge">
<title>RolesModule&#45;&gt;OrthancModule</title>
<path fill="none" stroke="black" d="M102,-122.11C102,-141.34 102,-169 102,-169 102,-169 168.53,-169 168.53,-169"/>
<polygon fill="black" stroke="black" points="168.53,-172.5 178.53,-169 168.53,-165.5 168.53,-172.5"/>
</g>
<!-- OrthancClient -->
<g id="node3" class="node">
<title>OrthancClient</title>
<ellipse fill="#fdb462" stroke="black" cx="374" cy="-104" rx="65.99" ry="18"/>
<text text-anchor="middle" x="374" y="-99.8" font-family="Times,serif" font-size="14.00">OrthancClient</text>
</g>
<!-- OrthancClient&#45;&gt;OrthancModule -->
<g id="edge2" class="edge">
<title>OrthancClient&#45;&gt;OrthancModule</title>
<path fill="none" stroke="black" d="M374,-122.11C374,-141.34 374,-169 374,-169 374,-169 293.44,-169 293.44,-169"/>
<polygon fill="black" stroke="black" points="293.44,-165.5 283.44,-169 293.44,-172.5 293.44,-165.5"/>
</g>
<!-- SeriesGuard -->
<g id="node4" class="node">
<title>SeriesGuard</title>
<ellipse fill="#fdb462" stroke="black" cx="231" cy="-104" rx="58.53" ry="18"/>
<text text-anchor="middle" x="231" y="-99.8" font-family="Times,serif" font-size="14.00">SeriesGuard</text>
</g>
<!-- SeriesGuard&#45;&gt;OrthancModule -->
<g id="edge3" class="edge">
<title>SeriesGuard&#45;&gt;OrthancModule</title>
<path fill="none" stroke="black" d="M231,-122.11C231,-122.11 231,-140.99 231,-140.99"/>
<polygon fill="black" stroke="black" points="227.5,-140.99 231,-150.99 234.5,-140.99 227.5,-140.99"/>
</g>
</g>
</svg>
